<svg width="41" height="40" viewBox="0 0 41 40" fill="none" xmlns="http://www.w3.org/2000/svg">
<g clip-path="url(#clip0_2100_3037)">
<path d="M39.6215 7.49703V14.1561H1.33215V7.49703C1.33215 7.05551 1.50755 6.63207 1.81975 6.31987C2.13195 6.00767 2.55539 5.83228 2.99691 5.83228H37.9568C38.3983 5.83228 38.8217 6.00767 39.1339 6.31987C39.4461 6.63207 39.6215 7.05551 39.6215 7.49703Z" fill="#386DF3"/>
<path d="M39.6217 7.16416V14.1561H3.82947V5.83236H37.957C38.3531 5.79459 38.7484 5.91248 39.0591 6.16106C39.3698 6.40964 39.5716 6.7694 39.6217 7.16416Z" fill="#386DF3"/>
<path d="M39.6215 14.1562V19.1505C39.6215 19.592 39.4461 20.0155 39.1339 20.3277C38.8217 20.6399 38.3983 20.8153 37.9568 20.8153H35.4596V17.4858H5.49404V20.8153H2.99691C2.55539 20.8153 2.13195 20.6399 1.81975 20.3277C1.50755 20.0155 1.33215 19.592 1.33215 19.1505V14.1562H39.6215Z" fill="#FFB431"/>
<path d="M35.4598 17.4856H5.4942V20.8151H35.4598V17.4856Z" fill="#FFB431"/>
<path d="M33.795 19.1504H5.4942V20.8151H33.795V19.1504Z" fill="#FFB431"/>
<path d="M36.2924 24.1447H4.66205L5.49443 20.8152H35.46L36.2924 24.1447Z" fill="#FFB431"/>
<path d="M36.2919 24.1446H6.32629C6.72584 22.946 6.92561 21.6475 8.3573 21.6475H35.6676L36.2919 24.1446Z" fill="#FFB431"/>
<path d="M3.82947 14.1562V17.4858C3.82947 17.9273 4.00486 18.3507 4.31706 18.6629C4.62927 18.9751 5.0527 19.1505 5.49422 19.1505V17.4858H35.4598V19.1505H39.6217V14.1562H3.82947Z" fill="#FFB431"/>
<path d="M37.957 5H2.99713C2.33485 5 1.6997 5.26309 1.23139 5.73139C0.76309 6.1997 0.5 6.83485 0.5 7.49713L0.5 19.1504C0.5 19.8127 0.76309 20.4479 1.23139 20.9162C1.6997 21.3845 2.33485 21.6476 2.99713 21.6476H4.42882L3.82951 23.9449C3.79864 24.0696 3.79702 24.1996 3.82478 24.325C3.85254 24.4504 3.90893 24.5676 3.98954 24.6676C4.07014 24.7675 4.17278 24.8475 4.28942 24.9012C4.40606 24.9549 4.53354 24.9808 4.66189 24.9771C38.8809 24.9771 36.5753 25.1352 36.9498 24.6608C37.3244 24.1863 37.1163 24.0198 36.5253 21.6476H37.957C38.6193 21.6476 39.2544 21.3845 39.7227 20.9162C40.191 20.4479 40.4541 19.8127 40.4541 19.1504V7.49713C40.4541 6.83485 40.191 6.1997 39.7227 5.73139C39.2544 5.26309 38.6193 5 37.957 5ZM2.99713 6.66476H37.957C38.1778 6.66476 38.3895 6.75245 38.5456 6.90855C38.7017 7.06465 38.7894 7.27637 38.7894 7.49713V13.3238H2.16476V7.49713C2.16476 7.27637 2.25245 7.06465 2.40855 6.90855C2.56465 6.75245 2.77637 6.66476 2.99713 6.66476ZM34.6275 19.9828H6.32664V18.318H34.6275V19.9828ZM5.72733 23.3123L6.14352 21.6476H34.8106L35.2268 23.3123H5.72733ZM37.957 19.9828H36.2922V17.4857C36.2922 17.2649 36.2045 17.0532 36.0484 16.8971C35.8923 16.741 35.6806 16.6533 35.4599 16.6533H5.49427C5.27351 16.6533 5.06179 16.741 4.90569 16.8971C4.74959 17.0532 4.66189 17.2649 4.66189 17.4857V19.9828H2.99713C2.77637 19.9828 2.56465 19.8951 2.40855 19.739C2.25245 19.5829 2.16476 19.3712 2.16476 19.1504V14.9885H38.7894V19.1504C38.7894 19.3712 38.7017 19.5829 38.5456 19.739C38.3895 19.8951 38.1778 19.9828 37.957 19.9828Z" fill="#386DF3"/>
<path d="M36.292 11.6589C36.5128 11.6589 36.7245 11.5712 36.8806 11.4151C37.0367 11.259 37.1244 11.0473 37.1244 10.8265C37.1244 10.6058 37.0367 10.394 36.8806 10.2379C36.7245 10.0818 36.5128 9.99414 36.292 9.99414C36.0713 9.99414 35.8596 10.0818 35.7035 10.2379C35.5474 10.394 35.4597 10.6058 35.4597 10.8265C35.4597 11.0473 35.5474 11.259 35.7035 11.4151C35.8596 11.5712 36.0713 11.6589 36.292 11.6589Z" fill="#FFB431"/>
<path d="M32.9631 11.6589C33.1838 11.6589 33.3955 11.5712 33.5516 11.4151C33.7077 11.259 33.7954 11.0473 33.7954 10.8265C33.7954 10.6058 33.7077 10.394 33.5516 10.2379C33.3955 10.0818 33.1838 9.99414 32.9631 9.99414C32.7423 9.99414 32.5306 10.0818 32.3745 10.2379C32.2184 10.394 32.1307 10.6058 32.1307 10.8265C32.1307 11.0473 32.2184 11.259 32.3745 11.4151C32.5306 11.5712 32.7423 11.6589 32.9631 11.6589Z" fill="#FFB431"/>
<path d="M19.6445 27.4742V34.1332C19.6445 34.354 19.7322 34.5657 19.8883 34.7218C20.0444 34.8779 20.2561 34.9656 20.4769 34.9656C20.6977 34.9656 20.9094 34.8779 21.0655 34.7218C21.2216 34.5657 21.3093 34.354 21.3093 34.1332V27.4742C21.3093 27.2535 21.2216 27.0417 21.0655 26.8856C20.9094 26.7295 20.6977 26.6418 20.4769 26.6418C20.2561 26.6418 20.0444 26.7295 19.8883 26.8856C19.7322 27.0417 19.6445 27.2535 19.6445 27.4742Z" fill="#386DF3"/>
<path d="M12.9858 27.4742V29.139C12.9858 30.2428 12.5473 31.3014 11.7668 32.0819C10.9863 32.8624 9.9277 33.3009 8.82389 33.3009C8.60313 33.3009 8.39142 33.3886 8.23531 33.5447C8.07921 33.7008 7.99152 33.9125 7.99152 34.1332C7.99152 36.2641 14.6505 34.4163 14.6505 29.139V27.4742C14.6505 27.2535 14.5628 27.0417 14.4067 26.8856C14.2506 26.7295 14.0389 26.6418 13.8182 26.6418C13.5974 26.6418 13.3857 26.7295 13.2296 26.8856C13.0735 27.0417 12.9858 27.2535 12.9858 27.4742Z" fill="#386DF3"/>
<path d="M32.1301 33.3009C31.0263 33.3009 29.9677 32.8624 29.1872 32.0819C28.4067 31.3014 27.9682 30.2428 27.9682 29.139V27.4742C27.9682 27.2535 27.8805 27.0417 27.7244 26.8856C27.5683 26.7295 27.3566 26.6418 27.1358 26.6418C26.9151 26.6418 26.7034 26.7295 26.5473 26.8856C26.3912 27.0417 26.3035 27.2535 26.3035 27.4742V29.139C26.3035 30.6843 26.9173 32.1663 28.0101 33.259C29.1028 34.3517 30.5848 34.9656 32.1301 34.9656C32.3509 34.9656 32.5626 34.8779 32.7187 34.7218C32.8748 34.5657 32.9625 34.354 32.9625 34.1332C32.9625 33.9125 32.8748 33.7008 32.7187 33.5447C32.5626 33.3886 32.3509 33.3009 32.1301 33.3009Z" fill="#386DF3"/>
</g>
<defs>
<clipPath id="clip0_2100_3037">
<rect width="40" height="40" fill="white" transform="translate(0.5)"/>
</clipPath>
</defs>
</svg>
