<svg width="41" height="40" viewBox="0 0 41 40" fill="none" xmlns="http://www.w3.org/2000/svg">
<path fill-rule="evenodd" clip-rule="evenodd" d="M18.0282 14.4639C17.5021 14.5956 17.1082 14.8204 16.7114 15.2157C16.3028 15.6228 16.0558 16.0711 15.942 16.6122C15.8998 16.8125 15.8723 17.6704 15.8723 18.7837V20.6241H26.1832H36.4941V18.7837C36.4941 17.6481 36.467 16.8165 36.4232 16.6122C36.1929 15.5359 35.3274 14.6699 34.257 14.4448C33.756 14.3394 18.4537 14.3574 18.0282 14.4639ZM28.497 16.6881C28.7743 16.8295 28.9953 17.1895 28.9953 17.4996C28.9953 17.9772 28.5333 18.437 28.0533 18.437C27.7627 18.437 27.3766 18.1939 27.2391 17.9244C27.0083 17.4721 27.1532 16.9782 27.5951 16.7107C27.8943 16.5296 28.1726 16.5226 28.497 16.6881ZM32.2464 16.6881C32.5237 16.8295 32.7447 17.1895 32.7447 17.4996C32.7447 17.9772 32.2827 18.437 31.8027 18.437C31.5121 18.437 31.126 18.1939 30.9885 17.9244C30.7578 17.4721 30.9026 16.9782 31.3445 16.7107C31.6437 16.5296 31.922 16.5226 32.2464 16.6881Z" fill="#FFB431"/>
<path fill-rule="evenodd" clip-rule="evenodd" d="M6.65592 8.08952C6.12975 8.22118 5.73587 8.44602 5.33912 8.84127C4.93049 9.2484 4.68347 9.6967 4.56968 10.2378C4.52231 10.463 4.5 11.9579 4.5 14.909V19.249H9.24926H13.9985V17.9965C13.9985 16.6118 14.0742 16.0722 14.3663 15.3734C14.8186 14.2917 15.7688 13.3401 16.8593 12.8769C17.6866 12.5255 17.9698 12.5 21.0573 12.5H23.872V11.5345C23.872 11.0034 23.8401 10.42 23.8011 10.2378C23.5708 9.16147 22.7053 8.29548 21.6349 8.07039C21.1348 7.96516 7.08104 7.98316 6.65592 8.08952ZM9.62583 13.1257C9.78462 13.2067 9.91735 13.3395 9.99834 13.4982C10.1136 13.7243 10.1241 13.8649 10.1241 15.1871C10.1241 16.5093 10.1136 16.6499 9.99834 16.876C9.85611 17.1547 9.49648 17.3743 9.18215 17.3743C8.89151 17.3743 8.50544 17.1312 8.36796 16.8617C8.26135 16.6528 8.24967 16.4828 8.25204 15.174C8.25498 13.5247 8.2801 13.417 8.72391 13.1484C9.02311 12.9673 9.30144 12.9603 9.62583 13.1257ZM4.5 29.2756C4.5 35.1164 4.52012 37.5214 4.57087 37.7587C4.80064 38.8322 5.6635 39.6951 6.73709 39.9249C6.96405 39.9734 8.30553 39.9958 11.0013 39.9958H14.9343L14.7171 39.6562C14.4946 39.3083 14.31 38.8922 14.1333 38.3398C14.0442 38.061 14.0313 37.1156 14.0145 29.5755L13.9955 21.1237H9.24776H4.5V29.2756ZM15.8732 29.963C15.8732 35.2914 15.8935 37.5223 15.9441 37.7587C16.1739 38.8322 17.0367 39.6951 18.1103 39.9249C18.5749 40.0243 33.7861 40.0254 34.2579 39.926C35.3184 39.7027 36.204 38.8172 36.4257 37.7587C36.4742 37.5268 36.495 35.1903 36.495 29.963V22.4985H26.1841H15.8732V29.963ZM9.62583 23.1242C9.78462 23.2052 9.91735 23.3379 9.99834 23.4967C10.1186 23.7325 10.1241 23.8606 10.1241 26.4354C10.1241 29.0101 10.1186 29.1382 9.99834 29.374C9.85611 29.6528 9.49648 29.8723 9.18215 29.8723C8.89151 29.8723 8.50544 29.6293 8.36796 29.3598C8.25685 29.142 8.24961 28.958 8.25204 26.4222C8.25498 23.3775 8.24661 23.4358 8.72391 23.1468C9.02311 22.9657 9.30144 22.9587 9.62583 23.1242ZM27.6527 24.5565C29.7349 25.0996 31.3668 26.7412 31.9431 28.8725C32.0619 29.3119 32.0867 29.5602 32.0867 30.3098C32.0867 31.0593 32.0619 31.3076 31.9431 31.747C31.3672 33.8769 29.7578 35.4977 27.6527 36.0681C26.9128 36.2685 25.4918 36.2681 24.7469 36.0674C22.6116 35.4918 21.0065 33.8947 20.4227 31.7648C20.2305 31.0637 20.2305 29.5558 20.4227 28.8547C21.0684 26.499 22.9656 24.8072 25.403 24.4138C25.8361 24.3439 27.1593 24.4278 27.6527 24.5565ZM25.3093 26.3451C24.1875 26.586 23.0789 27.4565 22.5681 28.4975C22.2747 29.0954 22.1245 29.7094 22.1245 30.3098C22.1245 31.8038 23.0359 33.2702 24.3719 33.9258C25.5752 34.5162 26.793 34.5162 27.9964 33.9258C29.0512 33.4082 29.9122 32.3009 30.1523 31.1534C30.3435 30.2395 30.2282 29.3699 29.8001 28.4975C29.4344 27.7522 28.7417 27.0594 27.9964 26.6938C27.1272 26.2673 26.2198 26.1495 25.3093 26.3451Z" fill="#386DF3"/>
</svg>
