<svg width="167" height="150" viewBox="0 0 167 150" fill="none" xmlns="http://www.w3.org/2000/svg">
<g clip-path="url(#clip0_283_6242)">
<path d="M83.4998 53.5408C86.5129 53.5408 89.4965 54.1342 92.2802 55.2873C95.0639 56.4403 97.5933 58.1304 99.7239 60.261C101.854 62.3915 103.544 64.9209 104.698 67.7046C105.851 70.4883 106.444 73.4719 106.444 76.4849V131.457H60.5557V76.4849C60.5557 73.4719 61.1491 70.4883 62.3022 67.7046C63.4552 64.9209 65.1453 62.3915 67.2759 60.261C69.4064 58.1304 71.9358 56.4403 74.7195 55.2873C77.5032 54.1342 80.4868 53.5408 83.4998 53.5408Z" fill="#386DF3"/>
<path d="M75.5395 81.126H71.4189V94.7988H75.5395V81.126Z" fill="white"/>
<path d="M90.3364 95.9226H76.6636V108.284H90.3364V95.9226Z" fill="white"/>
<path d="M90.3364 81.126H76.6636V94.7988H90.3364V81.126Z" fill="white"/>
<path d="M91.46 80.0021H95.5806V79.721C95.582 78.0006 95.2151 76.2997 94.5043 74.733C93.7936 73.1662 92.7555 71.7698 91.46 70.6377V80.0021Z" fill="white"/>
<path d="M76.6636 80.002H90.3364V69.7616C88.3259 68.3767 85.9414 67.6368 83.5 67.6401C81.0587 67.6368 78.6741 68.3767 76.6636 69.7616V80.002Z" fill="white"/>
<path d="M75.5395 95.9226H71.4189V105.287C71.4189 106.082 71.7347 106.845 72.2967 107.407C72.8587 107.969 73.6209 108.284 74.4157 108.284H75.5395V95.9226Z" fill="white"/>
<path d="M91.46 95.9226V108.284H92.5838C93.3786 108.284 94.1408 107.969 94.7028 107.407C95.2648 106.845 95.5805 106.082 95.5806 105.287V95.9226H91.46Z" fill="white"/>
<path d="M75.5395 80.0021V70.6377C74.244 71.7698 73.206 73.1662 72.4952 74.7329C71.7844 76.2997 71.4175 78.0006 71.4189 79.721V80.0021H75.5395Z" fill="white"/>
<path d="M95.5806 81.126H91.46V94.7988H95.5806V81.126Z" fill="white"/>
<path d="M103.166 99.2939C104.511 99.2939 105.601 98.2037 105.601 96.859C105.601 95.5142 104.511 94.4241 103.166 94.4241C101.822 94.4241 100.731 95.5142 100.731 96.859C100.731 98.2037 101.822 99.2939 103.166 99.2939Z" fill="white"/>
<path d="M26.4031 73.4902H23.1689V84.2218H26.4031V73.4902Z" fill="#F2F2F2"/>
<path d="M38.0167 73.4902H27.2852V84.2218H38.0167V73.4902Z" fill="#F2F2F2"/>
<path d="M42.1326 73.4902H38.8984V84.2218H42.1326V73.4902Z" fill="#F2F2F2"/>
<path d="M38.8984 72.6082H42.1326V72.3876C42.1338 71.0372 41.8457 69.7023 41.2879 68.4726C40.73 67.2428 39.9153 66.1468 38.8984 65.2583V72.6082Z" fill="#F2F2F2"/>
<path d="M38.0167 85.1038H27.2852V94.8061H38.0167V85.1038Z" fill="#F2F2F2"/>
<path d="M26.4031 85.1038H23.1689V92.454C23.1689 93.0778 23.4168 93.6761 23.8579 94.1172C24.299 94.5583 24.8972 94.8061 25.5211 94.8061H26.4031L26.4031 85.1038Z" fill="#F2F2F2"/>
<path d="M38.8984 85.1038V94.8061H39.7805C40.0894 94.8062 40.3952 94.7453 40.6806 94.6271C40.966 94.5089 41.2253 94.3356 41.4437 94.1172C41.6621 93.8988 41.8354 93.6395 41.9536 93.3542C42.0718 93.0688 42.1326 92.7629 42.1326 92.454V85.1038H38.8984Z" fill="#F2F2F2"/>
<path d="M26.4031 72.6082V65.2583C25.3863 66.1469 24.5715 67.2429 24.0137 68.4726C23.4558 69.7023 23.1678 71.0372 23.1689 72.3876V72.6082H26.4031Z" fill="#F2F2F2"/>
<path d="M27.2852 72.6083H38.0167V64.5709C36.4386 63.4839 34.5671 62.9031 32.6509 62.9058C30.7348 62.9031 28.8632 63.4839 27.2852 64.5709V72.6083Z" fill="#F2F2F2"/>
<path d="M46.3564 95.9788H19.0131C18.8377 95.9786 18.6696 95.9088 18.5455 95.7848C18.4215 95.6608 18.3518 95.4926 18.3516 95.3172V93.5531C18.3518 93.3777 18.4215 93.2096 18.5455 93.0856C18.6696 92.9615 18.8377 92.8918 19.0131 92.8916H46.3564C46.5318 92.8918 46.7 92.9615 46.824 93.0856C46.948 93.2096 47.0177 93.3777 47.0179 93.5531V95.3172C47.0177 95.4926 46.948 95.6608 46.824 95.7848C46.7 95.9088 46.5318 95.9786 46.3564 95.9788Z" fill="#E6E6E6"/>
<path d="M128.107 73.4902H124.873V84.2218H128.107V73.4902Z" fill="#F2F2F2"/>
<path d="M139.72 73.4902H128.989V84.2218H139.72V73.4902Z" fill="#F2F2F2"/>
<path d="M143.836 73.4902H140.602V84.2218H143.836V73.4902Z" fill="#F2F2F2"/>
<path d="M140.602 72.6082H143.836V72.3876C143.837 71.0372 143.549 69.7023 142.991 68.4726C142.434 67.2428 141.619 66.1468 140.602 65.2583V72.6082Z" fill="#F2F2F2"/>
<path d="M139.72 85.1038H128.989V94.8061H139.72V85.1038Z" fill="#F2F2F2"/>
<path d="M128.107 85.1038H124.873V92.454C124.873 93.0778 125.12 93.6761 125.561 94.1172C126.003 94.5583 126.601 94.8061 127.225 94.8061H128.107L128.107 85.1038Z" fill="#F2F2F2"/>
<path d="M140.602 85.1038V94.8061H141.484C141.793 94.8062 142.099 94.7453 142.384 94.6271C142.67 94.5089 142.929 94.3356 143.147 94.1172C143.366 93.8988 143.539 93.6395 143.657 93.3542C143.775 93.0688 143.836 92.7629 143.836 92.454V85.1038H140.602Z" fill="#F2F2F2"/>
<path d="M128.107 72.6082V65.2583C127.09 66.1469 126.275 67.2429 125.717 68.4726C125.159 69.7023 124.871 71.0372 124.873 72.3876V72.6082H128.107Z" fill="#F2F2F2"/>
<path d="M128.989 72.6083H139.72V64.5709C138.142 63.4839 136.271 62.9031 134.355 62.9058C132.438 62.9031 130.567 63.4839 128.989 64.5709V72.6083Z" fill="#F2F2F2"/>
<path d="M148.06 95.9788H120.717C120.541 95.9786 120.373 95.9088 120.249 95.7848C120.125 95.6608 120.055 95.4926 120.055 95.3172V93.5531C120.055 93.3777 120.125 93.2096 120.249 93.0856C120.373 92.9615 120.541 92.8918 120.717 92.8916H148.06C148.235 92.8918 148.404 92.9615 148.528 93.0856C148.652 93.2096 148.721 93.3777 148.722 93.5531V95.3172C148.721 95.4926 148.652 95.6608 148.528 95.7848C148.404 95.9088 148.235 95.9786 148.06 95.9788Z" fill="#E6E6E6"/>
<path d="M156.172 131.645H10.8279C9.18915 131.643 7.6181 130.991 6.45936 129.832C5.30062 128.674 4.64882 127.103 4.64697 125.464V31.2522C4.64882 29.6135 5.30062 28.0424 6.45936 26.8837C7.6181 25.7249 9.18915 25.0731 10.8279 25.0713H156.172C157.811 25.0731 159.382 25.7249 160.541 26.8837C161.7 28.0424 162.351 29.6135 162.353 31.2522V125.464C162.351 127.103 161.7 128.674 160.541 129.832C159.382 130.991 157.811 131.643 156.172 131.645ZM10.8279 25.4459C9.28847 25.4476 7.81263 26.0599 6.72412 27.1484C5.63561 28.2369 5.02332 29.7128 5.02157 31.2522V125.464C5.02332 127.003 5.63561 128.479 6.72412 129.568C7.81263 130.656 9.28847 131.268 10.8279 131.27H156.172C157.712 131.268 159.188 130.656 160.276 129.568C161.365 128.479 161.977 127.003 161.979 125.464V31.2522C161.977 29.7128 161.365 28.2369 160.276 27.1484C159.188 26.0599 157.712 25.4476 156.172 25.4459H10.8279Z" fill="#CCCCCC"/>
<path d="M6.99707 37.3898C5.44111 37.3886 3.94258 36.8019 2.79941 35.7464C1.65624 34.6908 0.952166 33.2437 0.827164 31.6928C0.702161 30.1418 1.16539 28.6007 2.12475 27.3757C3.0841 26.1507 4.46933 25.3315 6.00501 25.0812L81.9652 0.123306C82.9522 -0.0398653 83.9593 -0.0411011 84.9467 0.119648L161.008 25.0853C162.628 25.3525 164.075 26.2518 165.032 27.5855C165.989 28.9192 166.377 30.5783 166.112 32.1982C165.846 33.8181 164.948 35.2663 163.615 36.2246C162.283 37.1829 160.624 37.5728 159.004 37.3089C158.184 37.1918 84.1734 26.6241 83.4984 26.5963C82.826 26.6241 8.74303 37.2021 7.99479 37.309C7.66494 37.3628 7.33128 37.3898 6.99707 37.3898Z" fill="#386DF3"/>
<path d="M116.078 116.764C116.235 116.56 116.345 116.325 116.401 116.074C116.457 115.824 116.457 115.564 116.402 115.313C116.346 115.063 116.237 114.827 116.08 114.623C115.924 114.42 115.725 114.253 115.497 114.134L115.844 110.136L113.466 109.332L113.055 114.985C112.881 115.381 112.859 115.827 112.992 116.238C113.125 116.65 113.404 116.998 113.777 117.217C114.149 117.436 114.589 117.511 115.013 117.428C115.438 117.344 115.816 117.108 116.078 116.764Z" fill="#FFB8B8"/>
<path d="M127.947 147.851L125.805 147.85L124.787 139.591L127.947 139.591L127.947 147.851Z" fill="#FFB8B8"/>
<path d="M124.276 147.239H128.405V149.839H121.676C121.676 149.497 121.743 149.159 121.874 148.844C122.004 148.528 122.196 148.242 122.437 148C122.679 147.759 122.965 147.567 123.281 147.436C123.596 147.306 123.934 147.239 124.276 147.239Z" fill="#2F2E41"/>
<path d="M123.086 142.37L121.007 142.881L118.046 135.104L121.115 134.35L123.086 142.37Z" fill="#FFB8B8"/>
<path d="M119.376 142.652L123.386 141.667L124.006 144.192L117.471 145.797C117.39 145.466 117.374 145.121 117.426 144.784C117.477 144.446 117.595 144.122 117.772 143.83C117.949 143.538 118.181 143.284 118.457 143.082C118.732 142.879 119.044 142.733 119.376 142.652Z" fill="#2F2E41"/>
<path d="M125.441 145.218C125.245 145.218 125.057 145.146 124.911 145.015C124.766 144.884 124.675 144.704 124.655 144.51L122.191 121.556L120.047 128.575L123.083 139.538C123.136 139.726 123.117 139.927 123.03 140.101C122.943 140.276 122.795 140.413 122.614 140.485L120.2 141.451C120.101 141.49 119.994 141.51 119.887 141.507C119.78 141.505 119.675 141.481 119.577 141.436C119.48 141.392 119.392 141.328 119.32 141.249C119.248 141.17 119.193 141.077 119.158 140.976L115.436 130.298C115.028 129.132 114.848 127.899 114.905 126.665L115.424 115.142L129.105 115.721L128.891 144.231C128.889 144.43 128.812 144.62 128.677 144.765C128.541 144.91 128.357 144.999 128.159 145.015L125.502 145.215C125.481 145.217 125.461 145.218 125.441 145.218Z" fill="#2F2E41"/>
<path d="M123.175 89.6402C125.716 89.6402 127.775 87.5806 127.775 85.04C127.775 82.4993 125.716 80.4397 123.175 80.4397C120.634 80.4397 118.575 82.4993 118.575 85.04C118.575 87.5806 120.634 89.6402 123.175 89.6402Z" fill="#FFB8B8"/>
<path d="M126.558 116.471C125.346 116.471 123.841 116.372 122.284 116.269C120.157 116.129 117.956 115.985 116.314 116.08C116.092 116.102 115.869 116.066 115.664 115.977C115.46 115.889 115.282 115.749 115.147 115.571C113.454 113.404 116.065 104.95 116.177 104.591L118.302 95.1386C118.77 93.0596 120.264 91.526 122.201 91.1363C124.014 90.7721 125.768 91.4981 126.892 93.0796C126.952 93.1634 127.012 93.2495 127.071 93.3379C130.733 98.7614 128.662 112.236 128.523 113.105C128.717 113.337 129.763 114.647 129.475 115.557C129.358 115.927 129.04 116.18 128.531 116.307C127.881 116.436 127.22 116.491 126.558 116.471Z" fill="#CCCCCC"/>
<path d="M116.388 116.475C115.971 116.475 115.409 116.322 114.651 116.006C114.326 115.871 113.335 115.458 114.538 104.942C115.129 99.7763 115.976 94.6466 115.984 94.5954L115.992 94.546L116.038 94.5253C116.06 94.5155 118.222 93.5241 118.598 92.2504C118.611 92.2062 118.626 92.1635 118.642 92.1222C118.745 91.839 118.954 91.6067 119.225 91.4738C119.495 91.3409 119.807 91.3176 120.094 91.4088C120.398 91.4814 120.662 91.6667 120.834 91.9271C121.006 92.1876 121.073 92.5037 121.02 92.8114C120.889 93.6422 120.637 94.4493 120.273 95.2072C119.255 97.3069 118.566 102.873 118.559 102.929C118.52 103.404 117.596 114.667 117.418 115.522C117.356 115.821 117.242 116.186 116.906 116.363C116.745 116.442 116.567 116.481 116.388 116.475Z" fill="#2F2E41"/>
<path d="M121.414 116.043C121.33 116.043 121.248 116.015 121.182 115.964C119.828 114.935 122.019 102.468 123.318 98.1673C123.578 97.306 123.81 96.5684 124.006 95.9747C124.365 94.9097 124.615 93.8111 124.754 92.6958C124.825 92.0917 124.98 91.7466 125.229 91.6408C125.401 91.5673 125.604 91.6172 125.832 91.7894C127.032 91.7304 128.198 92.2205 129.278 92.7598L130.251 93.2451L131.342 112.565C131.311 113.798 128.881 114.668 127.82 114.724C126.118 114.813 123.061 115.09 121.714 115.943C121.626 116.005 121.522 116.039 121.414 116.043Z" fill="#2F2E41"/>
<path d="M115.334 112.419C115.318 112.419 115.302 112.418 115.286 112.417L113.082 112.281C112.972 112.275 112.865 112.245 112.767 112.195C112.67 112.144 112.584 112.074 112.514 111.989C112.445 111.903 112.395 111.804 112.366 111.698C112.337 111.592 112.331 111.481 112.347 111.372L113.345 104.765L115.222 95.4939C115.268 95.2655 115.362 95.0494 115.497 94.8596C115.632 94.6697 115.806 94.5104 116.007 94.3919C116.207 94.2735 116.43 94.1985 116.662 94.1718C116.893 94.1452 117.128 94.1674 117.35 94.2372C117.73 94.3585 118.054 94.6117 118.264 94.951C118.474 95.2903 118.556 95.6934 118.494 96.0876L117.003 105.377L116.119 111.735C116.092 111.924 115.998 112.097 115.854 112.223C115.71 112.348 115.525 112.418 115.334 112.419Z" fill="#2F2E41"/>
<path d="M124.015 89.527C124.708 89.542 125.395 89.4102 126.033 89.1405C126.671 88.8707 127.245 88.469 127.716 87.9618C128.188 87.4547 128.546 86.8534 128.769 86.1976C128.992 85.5419 129.073 84.8464 129.008 84.157C128.942 83.4676 128.732 82.7998 128.39 82.1975C128.048 81.5952 127.583 81.072 127.025 80.6624C126.466 80.2528 125.827 79.966 125.15 79.8208C124.473 79.6756 123.773 79.6754 123.096 79.8201C122.084 79.2059 120.908 78.7926 119.729 78.8977C118.55 79.0028 117.384 79.7027 116.944 80.801C116.503 81.8994 116.976 83.3472 118.072 83.7936C118.775 84.0798 119.569 83.941 120.319 83.8256C121.069 83.7102 121.887 83.6349 122.539 84.0218C123.192 84.4088 123.485 85.4463 122.901 85.9301C122.591 86.1967 122.37 86.5514 122.266 86.9469C122.163 87.3424 122.183 87.76 122.323 88.144C122.617 88.9038 123.419 89.5141 124.015 89.527Z" fill="#2F2E41"/>
<path d="M113.818 89.9373C112.619 89.938 111.469 90.4148 110.622 91.2629C109.774 92.1109 109.298 93.2608 109.298 94.4597C109.298 95.6586 109.774 96.8085 110.622 97.6565C111.469 98.5046 112.619 98.9814 113.818 98.9822C115.017 98.9814 116.166 98.5046 117.014 97.6566C117.861 96.8085 118.337 95.6587 118.337 94.4597C118.337 93.2608 117.861 92.1109 117.014 91.2629C116.166 90.4148 115.017 89.938 113.818 89.9373Z" fill="#2AB749"/>
<path d="M113.389 96.338C113.27 96.3382 113.154 96.2997 113.059 96.2283L113.053 96.2239L111.809 95.2725C111.752 95.2283 111.703 95.1732 111.667 95.1104C111.631 95.0476 111.607 94.9782 111.598 94.9062C111.588 94.8343 111.593 94.7612 111.612 94.691C111.63 94.6209 111.663 94.5552 111.707 94.4976C111.751 94.44 111.806 94.3917 111.869 94.3553C111.932 94.319 112.001 94.2954 112.073 94.2859C112.145 94.2764 112.218 94.2812 112.288 94.2999C112.358 94.3187 112.424 94.3511 112.482 94.3952L113.287 95.013L115.191 92.5296C115.235 92.472 115.29 92.4237 115.353 92.3874C115.416 92.3511 115.485 92.3275 115.557 92.318C115.629 92.3085 115.702 92.3132 115.772 92.332C115.842 92.3507 115.908 92.3831 115.965 92.4273L115.966 92.4274L115.954 92.4438L115.966 92.4274C116.082 92.5166 116.158 92.6484 116.177 92.7936C116.196 92.9388 116.157 93.0857 116.068 93.2021L113.829 96.1218C113.777 96.1891 113.711 96.2435 113.634 96.2809C113.558 96.3183 113.474 96.3376 113.389 96.3374L113.389 96.338Z" fill="white"/>
<path d="M122.865 105.186C122.999 104.967 123.18 104.781 123.394 104.639C123.608 104.498 123.851 104.405 124.105 104.368C124.359 104.331 124.618 104.349 124.864 104.423C125.11 104.497 125.337 104.623 125.529 104.794L129.143 103.048L130.739 104.986L125.601 107.379C125.293 107.682 124.884 107.862 124.452 107.884C124.021 107.906 123.596 107.768 123.259 107.498C122.921 107.228 122.695 106.843 122.622 106.417C122.55 105.991 122.636 105.553 122.865 105.186Z" fill="#FFB8B8"/>
<path d="M127.884 107.061C127.707 107.061 127.534 107.001 127.394 106.891C127.254 106.781 127.156 106.627 127.114 106.454L126.589 104.272C126.549 104.108 126.563 103.935 126.628 103.779C126.693 103.623 126.807 103.493 126.952 103.406L130.118 101.512L128.5 95.5868C128.386 95.1656 128.411 94.7189 128.571 94.313C128.723 93.9282 128.991 93.5999 129.337 93.3726C129.683 93.1453 130.091 93.0302 130.505 93.0429C130.918 93.0556 131.318 93.1955 131.65 93.4436C131.981 93.6916 132.228 94.0358 132.357 94.4292L134.143 99.8843C134.363 100.549 134.365 101.267 134.148 101.933C133.932 102.599 133.509 103.179 132.941 103.588L128.349 106.91C128.214 107.008 128.051 107.061 127.884 107.061Z" fill="#2F2E41"/>
<path d="M133.116 150H114.011C113.961 150 113.914 149.98 113.879 149.945C113.843 149.91 113.824 149.862 113.824 149.813C113.824 149.763 113.843 149.715 113.879 149.68C113.914 149.645 113.961 149.625 114.011 149.625H133.116C133.165 149.625 133.213 149.645 133.248 149.68C133.283 149.715 133.303 149.763 133.303 149.813C133.303 149.862 133.283 149.91 133.248 149.945C133.213 149.98 133.165 150 133.116 150Z" fill="#CCCCCC"/>
</g>
<defs>
<clipPath id="clip0_283_6242">
<rect width="165.386" height="150" fill="white" transform="translate(0.807129)"/>
</clipPath>
</defs>
</svg>
