<svg width="41" height="40" viewBox="0 0 41 40" fill="none" xmlns="http://www.w3.org/2000/svg">
<g clip-path="url(#clip0_2100_1201)">
<path d="M27.9375 9.28125H24.75C24.75 5.40625 16.0313 5.40625 16.0313 9.28125H12.8438C12.8438 1.53125 27.9375 1.53125 27.9375 9.28125Z" fill="#FFB431"/>
<path d="M39.875 10.3437V16.2344L24.1406 23.4531V20.3281H16.8594V23.4531L1.125 16.2344V10.3437C1.125 9.76562 1.59375 9.28125 2.17188 9.28125H38.8281C39.4062 9.28125 39.875 9.76562 39.875 10.3437Z" fill="#386DF3"/>
<path d="M39.875 16.2344V35.4688C39.875 36.0469 39.4062 36.5312 38.8281 36.5312H2.17188C1.59375 36.5312 1.125 36.0625 1.125 35.4688V16.2344L16.8594 23.4375V26.7031H19.2031V28.1875H21.7969V26.7031H24.1406V23.4375L39.875 16.2344Z" fill="#FFB431"/>
<path d="M24.1406 20.3281V26.7031H21.7969V23.8281H19.2031V26.7031H16.8594V20.3281H24.1406Z" fill="#386DF3"/>
<path d="M21.7969 23.8281H19.2031V28.1875H21.7969V23.8281Z" fill="#E5E5E5"/>
<path opacity="0.07" d="M27.9375 9.28125H24.75C24.75 5.40625 16.0313 5.40625 16.0313 9.28125H12.8438C12.8438 1.53125 27.9375 1.53125 27.9375 9.28125Z" fill="#FFB431"/>
<path opacity="0.07" d="M39.875 10.3437V16.2344L38 17.0938L24.1406 23.4531V20.3281H16.8594V23.4531L1.125 16.2344V14.4687C1.125 14.4687 14.3906 20.75 14.9219 20.5312C15.4375 20.3125 15.6406 18.9844 16.4844 18.7188C17.3281 18.4531 24.3438 18.2969 25 18.7188C25.6562 19.1406 25.4219 20.4844 26.1719 20.7969C26.7656 21.0469 34.7812 16.75 38.2812 14.8594C38.2969 14 38.4844 13.5469 38.25 11.0937C37.875 9.57812 1.125 11.1406 1.125 10.3437C1.125 9.76562 1.59375 9.28125 2.17188 9.28125H38.8281C39.4062 9.28125 39.875 9.76562 39.875 10.3437Z" fill="#FFB431"/>
<path opacity="0.07" d="M39.875 16.2344V35.4688C39.875 36.0469 39.4062 36.5312 38.8281 36.5312H2.17188C1.59375 36.5312 1.125 36.0625 1.125 35.4688C1.125 35.4688 35.7812 35.4375 37.3438 33.875C38.5938 32.625 38.375 22.4062 38.4219 18.5156L25.7031 24.4688C25.7031 24.4688 25.5938 27.0625 25.3594 27.3594C25.125 27.6406 24.0781 27.6719 23.7969 27.9375C23.5156 28.2031 23.4375 29.1094 22.9062 29.375C22.3906 29.6406 18.8438 29.7188 18.4531 29.5781C18.0625 29.4531 17.7969 28.5156 17.5156 28.2031C17.2344 27.8906 15.9844 28 15.625 27.6406C15.2656 27.2812 15.3906 24.6719 15.3906 24.6719L1.125 17.8437V16.2344L16.8594 23.4531V26.7188H19.2031V28.2031H21.7969V26.7188H24.1406V23.4531L38.4375 16.9062L39.875 16.2344Z" fill="#386DF3"/>
<path opacity="0.07" d="M21.7969 23.8281H19.2031V25.1094H21.7969V23.8281Z" fill="#FFB431"/>
<path d="M39.875 10.3437V16.2344L24.1406 23.4531V20.3281H16.8594V23.4531L1.125 16.2344V10.3437C1.125 9.76562 1.59375 9.28125 2.17187 9.28125H38.8281C39.4063 9.28125 39.875 9.76562 39.875 10.3437Z" stroke="#464646" stroke-miterlimit="10" stroke-linecap="round" stroke-linejoin="round"/>
<path d="M39.875 16.2344V35.4688C39.875 36.0469 39.4062 36.5312 38.8281 36.5312H2.17188C1.59375 36.5312 1.125 36.0625 1.125 35.4688V16.2344L16.8594 23.4375V26.7031H19.2031V28.1875H21.7969V26.7031H24.1406V23.4375L39.875 16.2344Z" fill="#386DF3" stroke="#464646" stroke-miterlimit="10" stroke-linecap="round" stroke-linejoin="round"/>
<path d="M24.1406 20.3281V26.7031H21.7969V23.8281H19.2031V26.7031H16.8594V20.3281H24.1406Z" fill="#FFB431" stroke="#464646" stroke-miterlimit="10" stroke-linecap="round" stroke-linejoin="round"/>
<path d="M21.7969 23.8281H19.2031V28.1875H21.7969V23.8281Z" fill="#FFB431" stroke="#464646" stroke-miterlimit="10" stroke-linecap="round" stroke-linejoin="round"/>
<path d="M27.9375 9.28125H24.75C24.75 5.40625 16.0313 5.40625 16.0313 9.28125H12.8438C12.8438 1.53125 27.9375 1.53125 27.9375 9.28125Z" stroke="#464646" stroke-miterlimit="10" stroke-linecap="round" stroke-linejoin="round"/>
</g>
<defs>
<clipPath id="clip0_2100_1201">
<rect width="40" height="40" fill="white" transform="translate(0.5)"/>
</clipPath>
</defs>
</svg>
