<svg width="48" height="48" viewBox="0 0 48 48" fill="none" xmlns="http://www.w3.org/2000/svg">
<rect x="0.5" y="0.5" width="47" height="47" rx="23.5" fill="white"/>
<rect x="0.5" y="0.5" width="47" height="47" rx="23.5" stroke="#ECEFF3"/>
<path d="M29.1336 22.0536L29.1336 22.0536L29.1395 22.0475C29.6136 21.5571 29.6221 20.775 29.1336 20.2864C28.6483 19.8012 27.8517 19.8012 27.3664 20.2864L22.58 25.0729L20.6336 23.1264C20.1483 22.6412 19.3517 22.6412 18.8664 23.1264C18.3812 23.6117 18.3812 24.4083 18.8664 24.8936L21.6964 27.7236C21.9291 27.9563 22.2459 28.09 22.58 28.09C22.9141 28.09 23.2309 27.9563 23.4636 27.7236L29.1336 22.0536ZM14.5 24C14.5 18.7661 18.7661 14.5 24 14.5C29.2339 14.5 33.5 18.7661 33.5 24C33.5 29.2339 29.2339 33.5 24 33.5C18.7661 33.5 14.5 29.2339 14.5 24Z" fill="#386DF3" stroke="#386DF3"/>
</svg>
