<svg width="21" height="20" viewBox="0 0 21 20" fill="none" xmlns="http://www.w3.org/2000/svg">
<g id="Calling">
<path id="Calling_2" fill-rule="evenodd" clip-rule="evenodd" d="M12.8558 0.00792976C12.6328 -0.0240483 12.4087 0.0419064 12.2304 0.183809C12.0472 0.32771 11.9326 0.535567 11.9077 0.768408C11.855 1.23908 12.1946 1.66479 12.6646 1.71776C15.9063 2.07951 18.4259 4.60477 18.7904 7.85654C18.8392 8.29224 19.2047 8.62101 19.6409 8.62101C19.6738 8.62101 19.7057 8.61902 19.7385 8.61502C19.9666 8.59004 20.1697 8.47711 20.3132 8.29724C20.4556 8.11736 20.5203 7.89351 20.4944 7.66467C20.0403 3.60746 16.9002 0.45862 12.8558 0.00792976ZM12.9181 3.48994C12.442 3.402 12.0048 3.70579 11.9142 4.17047C11.8236 4.63515 12.1283 5.08884 12.5914 5.17978C13.9857 5.45159 15.0623 6.53085 15.3351 7.92989V7.93089C15.4128 8.33361 15.7674 8.62641 16.1757 8.62641C16.2305 8.62641 16.2852 8.62141 16.341 8.61142C16.8041 8.51849 17.1088 8.0658 17.0182 7.60012C16.6109 5.51055 15.0025 3.89666 12.9181 3.48994ZM14.5001 13.0905C14.9515 12.8302 15.4615 12.5362 16.1047 12.673C16.6873 12.7959 18.6731 14.4078 19.2169 14.9665C19.5734 15.3322 19.7716 15.7099 19.8025 16.0877C19.8562 17.5697 17.8425 19.2615 17.476 19.4724C16.989 19.8231 16.4224 20 15.786 20C15.1357 20 14.4106 19.8151 13.6199 19.4464C9.32956 17.6556 2.77553 11.231 1.04266 6.97395C0.32362 5.38903 0.31864 4.08193 1.03071 3.09961C1.31454 2.63892 2.93288 0.713245 4.38192 0.774204C4.76733 0.807181 5.14179 1.00505 5.50928 1.3648C6.06499 1.90942 7.63653 3.90106 7.75803 4.48565C7.89247 5.13521 7.59769 5.65185 7.33576 6.10554C7.2799 6.20307 7.20463 6.31881 7.12217 6.4456C6.8092 6.92683 6.39264 7.56735 6.54004 7.97626C7.59669 10.5705 10.0376 12.8339 12.633 13.8972C13.0343 14.0431 13.6745 13.6235 14.1542 13.3092C14.2791 13.2273 14.3932 13.1525 14.4893 13.0967L14.5001 13.0905Z" fill="#0C1B54"/>
</g>
</svg>
