<svg width="40" height="40" viewBox="0 0 40 40" fill="none" xmlns="http://www.w3.org/2000/svg">
<circle cx="20" cy="20" r="20" fill="#F3F4F6"/>
<path d="M26 26.86H25.24C24.44 26.86 23.68 27.17 23.12 27.73L21.41 29.42C20.63 30.19 19.36 30.19 18.58 29.42L16.87 27.73C16.31 27.17 15.54 26.86 14.75 26.86H14C12.34 26.86 11 25.53 11 23.89V12.98C11 11.34 12.34 10.01 14 10.01H26C27.66 10.01 29 11.34 29 12.98V23.89C29 25.52 27.66 26.86 26 26.86Z" stroke="#0C1B54" stroke-width="1.5" stroke-miterlimit="10" stroke-linecap="round" stroke-linejoin="round"/>
<path d="M15 17.1598C15 16.2298 15.76 15.4697 16.69 15.4697C17.62 15.4697 18.38 16.2298 18.38 17.1598C18.38 19.0398 15.71 19.2398 15.12 21.0298C15 21.3998 15.31 21.7698 15.7 21.7698H18.38" stroke="#0C1B54" stroke-width="1.5" stroke-linecap="round" stroke-linejoin="round"/>
<path d="M24.0398 21.7599V16.0499C24.0398 15.7899 23.8698 15.5598 23.6198 15.4898C23.3698 15.4198 23.0998 15.5198 22.9598 15.7398C22.2398 16.8998 21.4598 18.2199 20.7798 19.3799C20.6698 19.5699 20.6698 19.8199 20.7798 20.0099C20.8898 20.1999 21.0998 20.3198 21.3298 20.3198H24.9998" stroke="#0C1B54" stroke-width="1.5" stroke-linecap="round" stroke-linejoin="round"/>
</svg>
