<svg width="41" height="40" viewBox="0 0 41 40" fill="none" xmlns="http://www.w3.org/2000/svg">
<path d="M3.25891 16.6161L17.1161 2.75891C17.682 2.19296 18.4496 1.87501 19.25 1.875C20.0504 1.87501 20.818 2.19296 21.3839 2.75891L33.808 15.183C34.091 15.466 34.25 15.8498 34.25 16.25C34.25 16.6502 34.091 17.034 33.808 17.317L17.817 33.308C17.534 33.591 17.1502 33.75 16.75 33.75C16.3498 33.75 15.966 33.591 15.683 33.308L3.25891 20.8839C2.69296 20.318 2.37501 19.5504 2.375 18.75C2.37501 17.9496 2.69296 17.182 3.25891 16.6161Z" fill="#386DF3"/>
<path d="M18.806 4.83522L19.6686 3.9314L33.4119 17.0474L32.5494 17.9512L18.806 4.83522ZM16.9279 31.6903L17.8117 30.8066L19.0615 32.0563L18.1777 32.9401L16.9279 31.6903ZM14.4284 29.1903L15.3122 28.3066L16.5619 29.5563L15.6782 30.4401L14.4284 29.1903ZM11.929 26.6903L12.8127 25.8066L14.0625 27.0563L13.1787 27.9401L11.929 26.6903ZM9.42951 24.1903L10.3133 23.3066L11.563 24.5563L10.6793 25.4401L9.42951 24.1903ZM6.93006 21.6903L7.81381 20.8066L9.06357 22.0563L8.17982 22.9401L6.93006 21.6903ZM4.4306 19.1903L5.31435 18.3066L6.56412 19.5563L5.68037 20.4401L4.4306 19.1903Z" fill="white"/>
<path d="M31.6459 21.1458L31.2093 12.8515C31.1866 12.4192 30.999 12.0121 30.685 11.7142C30.371 11.4162 29.9547 11.25 29.5218 11.25C29.1042 11.25 28.7014 11.4046 28.391 11.684C28.0807 11.9634 27.8848 12.3478 27.841 12.7631L27.4051 16.9047L25.5 15L19.875 9.37496C19.7109 9.2108 19.516 9.08059 19.3015 8.99174C19.087 8.9029 18.8572 8.85718 18.625 8.85718C18.3929 8.85718 18.163 8.9029 17.9485 8.99174C17.734 9.08059 17.5392 9.2108 17.375 9.37496C17.2109 9.53911 17.0806 9.73398 16.9918 9.94846C16.903 10.1629 16.8572 10.3928 16.8572 10.625C16.8572 10.8571 16.903 11.087 16.9918 11.3015C17.0806 11.5159 17.2109 11.7108 17.375 11.875C17.2109 11.7108 17.016 11.5806 16.8015 11.4917C16.587 11.4029 16.3572 11.3572 16.125 11.3572C15.8929 11.3572 15.663 11.4029 15.4485 11.4917C15.234 11.5806 15.0392 11.7108 14.875 11.875C14.7109 12.0391 14.5806 12.234 14.4918 12.4485C14.403 12.6629 14.3572 12.8928 14.3572 13.125C14.3572 13.3571 14.403 13.587 14.4918 13.8015C14.5806 14.0159 14.7109 14.2108 14.875 14.375C14.7109 14.2108 14.516 14.0806 14.3015 13.9917C14.087 13.9029 13.8572 13.8572 13.625 13.8572C13.3929 13.8572 13.163 13.9029 12.9485 13.9917C12.734 14.0806 12.5392 14.2108 12.375 14.375C12.2109 14.5391 12.0806 14.734 11.9918 14.9485C11.903 15.1629 11.8572 15.3928 11.8572 15.625C11.8572 15.8571 11.903 16.087 11.9918 16.3015C12.0806 16.5159 12.2109 16.7108 12.375 16.875C12.2109 16.7108 12.016 16.5806 11.8015 16.4917C11.587 16.4029 11.3572 16.3572 11.125 16.3572C10.8929 16.3572 10.663 16.4029 10.4485 16.4917C10.234 16.5806 10.0392 16.7108 9.87502 16.875C9.71086 17.0391 9.58065 17.234 9.49181 17.4485C9.40296 17.6629 9.35724 17.8928 9.35724 18.125C9.35724 18.3571 9.40296 18.587 9.49181 18.8015C9.58065 19.0159 9.71086 19.2108 9.87502 19.375L15.5 25L28.625 38.125L38.625 28.125L31.6459 21.1458Z" fill="#FFB431"/>
<path d="M29.8684 36.8746L37.3673 29.3757L39.242 31.2505L31.7431 38.7493L29.8684 36.8746Z" fill="#386DF3"/>
<path d="M28.1771 33.9308L36.3008 25.807L37.1846 26.6908L29.0608 34.8146L28.1771 33.9308ZM16.9299 12.3178L17.8136 11.4341L23.4378 17.0583L22.554 17.942L16.9299 12.3178ZM14.4299 14.8173L15.3136 13.9335L20.9378 19.5578L20.054 20.4414L14.4299 14.8173ZM11.9299 17.3167L12.8136 16.433L18.4378 22.0572L17.554 22.9409L11.9299 17.3167Z" fill="#386DF3"/>
<path d="M3.19164 33.815L1.94844 33.685C2.26651 30.64 2.97084 27.6478 4.04445 24.7806L5.21492 25.2194C4.17857 27.9871 3.49868 30.8756 3.19164 33.815ZM3 38.75H1.75V37.5C1.75 36.6534 1.77953 35.7977 1.83789 34.9567L3.08484 35.0433C3.02838 35.861 3.00008 36.6804 3 37.5V38.75ZM10.5 38.75H9.25V37.7631C9.24872 35.3011 9.56266 32.8491 10.1841 30.4669L11.3935 30.7831C10.799 33.0621 10.4987 35.4079 10.5 37.7631V38.75ZM25.7194 4.71492L25.2806 3.54438C29.2209 2.06781 33.4981 1.29586 37.9936 1.25L38.0064 2.5C33.6568 2.5443 29.5229 3.28945 25.7194 4.71492ZM31.8884 10.9446L31.6116 9.72586C33.6145 9.27141 35.7019 9.03836 37.9932 9.01344L38.0068 10.2634C35.8051 10.287 33.8037 10.5099 31.8884 10.9446Z" fill="#386DF3"/>
</svg>
