<svg width="43" height="43" viewBox="0 0 43 43" fill="none" xmlns="http://www.w3.org/2000/svg">
<g clip-path="url(#clip0_2100_3315)">
<path opacity="0.1" d="M41.8044 28.1635C41.9695 30.6581 35.6458 31.1705 31.1541 30.2619C21.3639 33.2899 9.50956 34.2309 4.08314 31.9749C5.12991 31.7021 5.97927 31.2857 6.36836 30.5397C6.36836 30.5397 5.83651 17.2959 5.94611 16.3491C6.05571 15.4023 6.52653 15.4181 7.23271 14.4945C7.65081 13.95 7.7862 13.393 7.96515 13.021C7.96412 13.0054 7.97971 13.0044 7.97868 12.9888C8.10249 12.7301 8.26367 12.5628 8.54431 12.5442C8.7314 12.5319 8.9413 12.6276 9.15637 12.8013C12.5688 12.3092 15.5352 12.1756 18.1315 12.364C27.8845 13.034 32.0903 18.1424 32.6943 26.3235C34.4194 26.8357 36.8449 27.5208 39.4695 27.1906L39.485 27.1895C39.5786 27.1834 39.6555 27.1626 39.7491 27.1564C39.7647 27.1554 39.7647 27.1554 39.7802 27.1543C41.0868 27.0209 41.7621 27.5243 41.8044 28.1635Z" fill="white"/>
<path d="M40.2469 27.1078C40.412 29.6023 34.0883 30.1147 29.5966 29.2062C32.052 28.4487 34.3723 27.5435 36.4359 26.5457C36.9858 26.337 37.4931 26.1939 37.9276 26.1338L37.9432 26.1328C38.0367 26.1266 38.1136 26.1058 38.2072 26.0996C38.2228 26.0986 38.2228 26.0986 38.2384 26.0976C39.5293 25.9652 40.2057 26.4841 40.2469 27.1078Z" fill="white"/>
<path opacity="0.15" d="M40.2469 27.1078C40.412 29.6023 34.0883 30.1147 29.5966 29.2062C32.052 28.4487 34.3723 27.5435 36.4359 26.5457C36.9858 26.337 37.4931 26.1939 37.9276 26.1338L37.9432 26.1328C38.0367 26.1266 38.1136 26.1058 38.2072 26.0996C38.2228 26.0986 38.2228 26.0986 38.2384 26.0976C39.5293 25.9652 40.2057 26.4841 40.2469 27.1078Z" fill="black"/>
<path opacity="0.07" d="M40.2459 27.0923C39.9923 27.0465 39.694 27.0349 39.351 27.0576C39.3354 27.0586 39.3354 27.0586 39.3198 27.0596C39.2263 27.0658 39.1494 27.0866 39.0558 27.0928L39.0402 27.0938C38.6068 27.1695 38.1141 27.296 37.5486 27.5057C36.0016 28.2657 34.3092 28.9571 32.5181 29.5767C31.5276 29.517 30.5319 29.3793 29.6122 29.2053C32.0675 28.4478 34.3878 27.5426 36.4515 26.5448C37.0014 26.3361 37.5087 26.193 37.9431 26.1329L37.9587 26.1319C38.0523 26.1257 38.1292 26.1049 38.2227 26.0987C38.2383 26.0977 38.2383 26.0977 38.2539 26.0967C39.5137 25.9663 40.189 26.4697 40.2459 27.0923Z" fill="black"/>
<path d="M37.9276 26.1338C37.4941 26.2095 37.0014 26.336 36.4359 26.5457C34.3733 27.5591 32.052 28.4487 29.5966 29.2062C19.822 32.2332 7.95207 33.1752 2.52565 30.9192C3.57242 30.6464 4.42178 30.23 4.81087 29.4839C5.91014 30.2411 8.74436 30.4764 12.2408 30.3077C14.0982 30.2161 16.1511 30.0019 18.2143 29.7088C21.1601 29.2634 24.1714 28.6256 26.7484 27.8131C28.4667 27.2766 30.0074 26.6579 31.2165 25.9985C32.926 26.5117 35.2864 26.4495 37.9276 26.1338Z" fill="white"/>
<path opacity="0.1" d="M32.74 26.3049C31.799 26.9935 30.7916 27.6239 29.5192 28.0369C20.4337 31.0653 9.63311 32.3124 3.82402 30.4262C4.26275 30.1936 4.60277 29.8892 4.81084 29.484C5.91011 30.2412 8.74432 30.4764 12.2408 30.3077C14.0982 30.2161 16.151 30.002 18.2143 29.7089C21.1601 29.2634 24.1714 28.6257 26.7484 27.8131C28.4667 27.2766 30.0074 26.6579 31.2165 25.9985C31.6799 26.1401 32.1871 26.2318 32.74 26.3049Z" fill="black"/>
<path d="M26.7484 27.8131C24.1714 28.6257 21.1757 29.2624 18.2143 29.7089C17.306 27.3418 17.0327 18.9509 16.6597 12.3674C22.7442 14.1571 25.6891 19.8501 26.7484 27.8131Z" fill="white"/>
<path opacity="0.1" d="M26.7484 27.8132C24.1714 28.6257 21.1757 29.2624 18.2143 29.7089C17.306 27.3418 17.0327 18.951 16.6607 12.3831C17.1564 12.5382 17.6375 12.7099 18.1041 12.8983C18.4337 19.0618 18.7244 26.0579 19.5548 28.1952C21.958 27.8326 24.3841 27.3433 26.5993 26.7426C26.6375 27.0845 26.6935 27.4567 26.7484 27.8132Z" fill="black"/>
<path d="M13.4594 23.1648C13.5235 23.8966 13.9638 24.6347 13.9041 25.6252C13.8568 26.5679 12.5042 27.4247 12.2253 30.3088C8.72878 30.4775 5.89456 30.2423 4.79529 29.4851C4.79529 29.4851 4.26345 16.2413 4.37305 15.2945C4.48265 14.3477 4.95347 14.3635 5.65965 13.4398C6.07774 12.8954 6.21313 12.3384 6.39209 11.9664C6.39106 11.9508 6.40665 11.9498 6.40561 11.9342C6.52943 11.6754 6.69061 11.5082 6.97125 11.4896C7.15834 11.4772 7.36824 11.573 7.5833 11.7466C7.61552 11.7602 7.63317 11.7903 7.66641 11.8194C8.22952 12.2833 8.83504 13.1514 9.27972 13.4822C9.92181 13.9564 13.1818 14.9465 13.7464 16.616C14.3421 18.2834 13.3953 22.4331 13.4594 23.1648Z" fill="#E5E5E5"/>
<path opacity="0.07" d="M13.4594 23.1648C13.5235 23.8965 13.9638 24.6347 13.9041 25.6252C13.8568 26.5678 12.5042 27.4247 12.2253 30.3087C8.72877 30.4775 5.89455 30.2422 4.79528 29.485C4.79528 29.485 4.75929 28.7044 4.73981 28.1733C6.16878 28.4702 8.42384 29.1823 10.7812 29.0733C11.0601 26.1892 12.2278 25.141 12.2761 24.214C12.3202 23.2245 11.8955 22.4853 11.8314 21.7536C11.7673 21.0218 12.7142 16.8721 12.134 15.2037C12.0945 15.081 12.0395 14.9594 11.9689 14.8388C12.7835 15.3173 13.5274 15.9101 13.763 16.6305C14.3421 18.2834 13.3953 22.433 13.4594 23.1648Z" fill="black"/>
<path d="M18.2143 29.7089C16.1365 30.0187 14.0992 30.2318 12.2408 30.3078C12.5197 27.4237 13.8724 26.5669 13.9196 25.6242C13.9638 24.6348 13.539 23.8956 13.4749 23.1638C13.4109 22.4321 14.3577 18.2824 13.7775 16.6139C13.2129 14.9445 9.95294 13.9544 9.31085 13.4801C8.86617 13.1494 8.26168 12.2968 7.69755 11.8174C11.2596 11.4564 14.2165 11.6523 16.6597 12.3675C17.0316 18.9354 17.305 27.3263 18.2143 29.7089Z" fill="white"/>
<path opacity="0.1" d="M14.817 22.8557C14.881 23.5875 15.4469 24.8028 15.4027 25.7922C15.3555 26.7349 14.267 27.3237 13.9881 30.2078C13.2719 30.2708 12.9123 30.2789 12.2409 30.3077C12.5198 27.4236 13.8724 26.5668 13.9197 25.6241C13.9638 24.6347 13.5391 23.8955 13.475 23.1638C13.4109 22.432 14.3577 18.2823 13.7776 16.6139C13.213 14.9444 9.95299 13.9543 9.3109 13.4801C8.86621 13.1493 8.26173 12.2968 7.69759 11.8173C8.47507 11.7346 9.23903 11.684 9.95827 11.6677C9.89591 11.6719 9.83355 11.676 9.78677 11.6791C10.3499 12.1429 10.6043 12.6742 11.05 13.0205C11.6921 13.4948 14.58 14.3058 15.1602 15.9743C15.7092 17.6448 14.7362 22.1094 14.817 22.8557Z" fill="black"/>
<path d="M31.2009 25.9996C29.9928 26.6746 28.4667 27.2766 26.7328 27.8142C25.6735 19.8511 22.7287 14.1581 16.6441 12.3685C14.2009 11.6532 11.244 11.4574 7.68198 11.8184C7.64873 11.7892 7.63211 11.7747 7.59886 11.7456C11.0113 11.2536 13.9777 11.1199 16.5739 11.3083C26.3426 11.9773 30.6125 17.8174 31.2009 25.9996Z" fill="white"/>
<path opacity="0.1" d="M28.3566 27.2683C27.8368 27.4593 27.3004 27.6357 26.7328 27.8142C25.6735 19.8512 22.7287 14.1582 16.6441 12.3685C14.201 11.6533 11.2441 11.4574 7.68201 11.8184C7.64876 11.7893 7.63214 11.7747 7.5989 11.7456C8.18826 11.6596 8.74747 11.5913 9.30667 11.523C9.30667 11.523 9.3233 11.5376 9.33992 11.5521C12.902 11.1911 15.8589 11.387 18.302 12.1022C24.3232 13.8804 27.2754 19.4476 28.3566 27.2683Z" fill="black"/>
<path d="M40.2469 27.1078C40.412 29.6023 34.0883 30.1147 29.5966 29.2062C32.052 28.4487 34.3723 27.5435 36.4359 26.5457C36.9858 26.337 37.4931 26.1939 37.9276 26.1338L37.9432 26.1328C38.0367 26.1266 38.1136 26.1058 38.2072 26.0996C38.2228 26.0986 38.2228 26.0986 38.2384 26.0976C39.5293 25.9652 40.2057 26.4841 40.2469 27.1078Z" stroke="#464646" stroke-miterlimit="10" stroke-linecap="round" stroke-linejoin="round"/>
<path d="M37.9276 26.1338C37.4941 26.2095 37.0014 26.336 36.4359 26.5457C34.3733 27.5591 32.052 28.4487 29.5966 29.2062C19.822 32.2332 7.95207 33.1752 2.52565 30.9192C3.57242 30.6464 4.42178 30.23 4.81087 29.4839C5.91014 30.2411 8.74436 30.4764 12.2408 30.3077C14.0982 30.2161 16.1511 30.0019 18.2143 29.7088C21.1601 29.2634 24.1714 28.6256 26.7484 27.8131C28.4667 27.2766 30.0074 26.6579 31.2165 25.9985C32.926 26.5117 35.2864 26.4495 37.9276 26.1338Z" stroke="#464646" stroke-miterlimit="10" stroke-linecap="round" stroke-linejoin="round"/>
<path d="M26.7484 27.8131C24.1714 28.6257 21.1757 29.2624 18.2143 29.7089C17.306 27.3418 17.0327 18.9509 16.6597 12.3674C22.7442 14.1571 25.6891 19.8501 26.7484 27.8131Z" stroke="#464646" stroke-miterlimit="10" stroke-linecap="round" stroke-linejoin="round"/>
<path d="M13.4594 23.1648C13.5235 23.8966 13.9638 24.6347 13.9041 25.6252C13.8568 26.5679 12.5042 27.4247 12.2253 30.3088C8.72878 30.4775 5.89456 30.2423 4.79529 29.4851C4.79529 29.4851 4.26345 16.2413 4.37305 15.2945C4.48265 14.3477 4.95347 14.3635 5.65965 13.4398C6.07774 12.8954 6.21313 12.3384 6.39209 11.9664C6.39106 11.9508 6.40665 11.9498 6.40561 11.9342C6.52943 11.6754 6.69061 11.5082 6.97125 11.4896C7.15834 11.4772 7.36824 11.573 7.5833 11.7466C7.61552 11.7602 7.63317 11.7903 7.66641 11.8194C8.22952 12.2833 8.83504 13.1514 9.27972 13.4822C9.92181 13.9564 13.1818 14.9465 13.7464 16.616C14.3421 18.2834 13.3953 22.4331 13.4594 23.1648Z" stroke="#464646" stroke-miterlimit="10" stroke-linecap="round" stroke-linejoin="round"/>
<path d="M18.2143 29.7089C16.1365 30.0187 14.0992 30.2318 12.2408 30.3078C12.5197 27.4237 13.8724 26.5669 13.9196 25.6242C13.9638 24.6348 13.539 23.8956 13.4749 23.1638C13.4109 22.4321 14.3577 18.2824 13.7775 16.6139C13.2129 14.9445 9.95294 13.9544 9.31085 13.4801C8.86617 13.1494 8.26168 12.2968 7.69755 11.8174C11.2596 11.4564 14.2165 11.6523 16.6597 12.3675C17.0316 18.9354 17.305 27.3263 18.2143 29.7089Z" stroke="#464646" stroke-miterlimit="10" stroke-linecap="round" stroke-linejoin="round"/>
<path d="M31.2009 25.9996C29.9928 26.6746 28.4667 27.2766 26.7328 27.8142C25.6735 19.8511 22.7287 14.1581 16.6441 12.3685C14.2009 11.6532 11.244 11.4574 7.68198 11.8184C7.64873 11.7892 7.63211 11.7747 7.59886 11.7456C11.0113 11.2536 13.9777 11.1199 16.5739 11.3083C26.3426 11.9773 30.6125 17.8174 31.2009 25.9996Z" stroke="#464646" stroke-miterlimit="10" stroke-linecap="round" stroke-linejoin="round"/>
</g>
<defs>
<clipPath id="clip0_2100_3315">
<rect width="40" height="40" fill="white" transform="translate(0.0316162 2.69434) rotate(-3.78578)"/>
</clipPath>
</defs>
</svg>
