<svg width="41" height="40" viewBox="0 0 41 40" fill="none" xmlns="http://www.w3.org/2000/svg">
<g clip-path="url(#clip0_2100_3261)">
<path d="M9.96699 39.0861V36.4616H3.45264C4.48369 29.0333 9.21714 23.4329 14.8879 23.4329H16.6688L20.4884 28.4006L24.3314 23.4329H26.0888C31.7596 23.4329 36.4931 29.0568 37.5475 36.4616H31.0098V39.0861H9.96699Z" fill="#386DF3"/>
<path d="M3.45264 36.4617C3.49255 36.1483 3.53943 35.8358 3.59323 35.5244H10.4356C10.5599 35.5244 10.6791 35.5738 10.767 35.6617C10.8549 35.7496 10.9043 35.8688 10.9043 35.9931C10.9043 36.1174 10.8549 36.2366 10.767 36.3245C10.6791 36.4124 10.5599 36.4617 10.4356 36.4617H3.45264ZM37.3835 35.5244C37.4452 35.8356 37.4998 36.1481 37.5475 36.4617H30.5411C30.4168 36.4617 30.2976 36.4124 30.2097 36.3245C30.1218 36.2366 30.0724 36.1174 30.0724 35.9931C30.0724 35.8688 30.1218 35.7496 30.2097 35.6617C30.2976 35.5738 30.4168 35.5244 30.5411 35.5244H37.3835Z" fill="#808DA4"/>
<path d="M25.1047 23.2454H26.0888C27.2146 23.249 28.3289 23.4719 29.3695 23.9015V32.3608C29.3695 32.4851 29.3201 32.6043 29.2322 32.6922C29.1443 32.7801 29.0251 32.8294 28.9008 32.8294C26.37 32.8294 25.9717 32.97 25.5733 32.97C25.449 32.97 25.3298 32.9207 25.2419 32.8328C25.154 32.7449 25.1047 32.6257 25.1047 32.5014V23.2454ZM11.6073 23.9015C12.6479 23.4719 13.7621 23.249 14.8879 23.2454H15.8721V32.3842C15.8721 32.4457 15.86 32.5067 15.8364 32.5636C15.8129 32.6204 15.7783 32.6721 15.7348 32.7156C15.6913 32.7591 15.6396 32.7936 15.5828 32.8172C15.5259 32.8407 15.465 32.8529 15.4034 32.8529C14.3958 32.8529 12.0994 32.97 12.076 32.97C11.9517 32.97 11.8325 32.9207 11.7446 32.8328C11.6567 32.7449 11.6073 32.6257 11.6073 32.5014V23.9015Z" fill="#F0F0F0"/>
<path d="M20.4884 22.2612C16.786 22.2612 13.9271 18.5119 12.7555 14.9267C12.1974 14.6705 11.723 14.2618 11.3872 13.7477C11.0514 13.2336 10.8677 12.635 10.8574 12.021C10.8604 11.4161 11.0194 10.8222 11.319 10.2968C11.6187 9.77133 12.0489 9.3321 12.568 9.0216C12.6408 8.98599 12.7215 8.96984 12.8024 8.97473H28.1978C28.2786 8.96984 28.3594 8.98599 28.4321 9.0216C28.9556 9.32921 29.3905 9.76717 29.6944 10.2928C29.9982 10.8185 30.1608 11.4139 30.1661 12.021C30.1562 12.6442 29.9676 13.2514 29.6229 13.7705C29.2781 14.2897 28.7917 14.6991 28.2212 14.9501C27.0496 18.5119 24.1908 22.2612 20.4884 22.2612Z" fill="#FEC9A3"/>
<path d="M28.1977 9.91213H12.8023C12.678 9.91213 12.5588 9.86275 12.4709 9.77486C12.383 9.68697 12.3336 9.56776 12.3336 9.44347V8.90451L12.8491 4.68658C13.2475 1.47627 16.9733 0 20.4883 0C23.9095 0 27.7525 1.49971 28.1508 4.75688L28.6195 8.90451V9.34974C28.6336 9.41862 28.632 9.48978 28.6148 9.55796C28.5976 9.62614 28.5654 9.68958 28.5204 9.74359C28.4754 9.7976 28.4188 9.84079 28.3548 9.86997C28.2908 9.89914 28.2211 9.91355 28.1508 9.91213H28.1977Z" fill="#FBC946"/>
<path d="M25.4326 12.8882C25.1514 12.8882 24.8468 12.8179 24.4719 12.7476C23.1678 12.4333 21.8295 12.2837 20.4883 12.3023C18.3793 12.3023 17.2545 12.5601 16.5047 12.7476C16.1751 12.832 15.8371 12.8791 15.4971 12.8882C14.63 12.8882 14.2083 12.3023 12.8491 10.3105L12.4274 9.72471C12.3751 9.65508 12.3433 9.57228 12.3355 9.4856C12.3277 9.39892 12.3442 9.31177 12.3831 9.23392C12.422 9.15607 12.4819 9.0906 12.5559 9.04485C12.6299 8.99909 12.7152 8.97485 12.8023 8.97485H28.1977C28.2809 8.97775 28.3618 9.00275 28.4322 9.04729C28.5025 9.09183 28.5597 9.15431 28.5979 9.22828C28.6361 9.30226 28.6538 9.38507 28.6494 9.4682C28.645 9.55133 28.6185 9.63178 28.5726 9.70127L28.104 10.334C26.7449 12.3023 26.3231 12.8882 25.4326 12.8882Z" fill="#386DF3"/>
<path d="M24.3313 23.433L23.2534 21.5349C22.4048 21.9963 21.4542 22.238 20.4883 22.2379C19.5303 22.2341 18.5882 21.9925 17.7466 21.5349L16.6687 23.4095L20.4883 28.4008L24.3313 23.433Z" fill="#FEC9A3"/>
<path d="M23.558 22.0739L23.2534 21.5583C22.4048 22.0197 21.4542 22.2614 20.4883 22.2613C19.5303 22.2575 18.5883 22.016 17.7467 21.5583L17.442 22.0739C18.3811 22.5825 19.4321 22.8489 20.5 22.8489C21.568 22.8489 22.619 22.5825 23.558 22.0739ZM9.96694 36.4617H3.45259C3.30283 37.4782 3.22453 38.5039 3.21826 39.5314C3.21826 39.7892 3.45259 40.0001 3.68692 40.0001H9.96694V36.4617ZM31.0097 36.4617V40.0001H37.2897C37.3577 40.0008 37.425 39.9868 37.4869 39.959C37.5489 39.9312 37.6041 39.8902 37.6487 39.839C37.6933 39.7877 37.7262 39.7273 37.7451 39.6621C37.7641 39.5969 37.7686 39.5283 37.7584 39.4611C37.7489 38.4571 37.6707 37.455 37.5241 36.4617H31.0097Z" fill="#FEB593"/>
<path d="M20.6523 7.70947L20.5117 7.68603C20.4232 7.65931 20.3467 7.6026 20.2954 7.52564C20.2441 7.44867 20.2211 7.35626 20.2305 7.26424V5.85826H18.5434C18.4653 5.86318 18.3875 5.84499 18.3197 5.80596C18.2519 5.76694 18.197 5.70882 18.1621 5.63884C18.1271 5.56887 18.1135 5.49014 18.1229 5.41248C18.1324 5.33481 18.1645 5.26166 18.2153 5.20214L20.3477 1.85123C20.3903 1.76729 20.4613 1.70116 20.5481 1.66458C20.6349 1.62801 20.7318 1.62335 20.8217 1.65143C20.9115 1.67952 20.9886 1.73853 21.0391 1.81801C21.0896 1.89748 21.1103 1.99227 21.0975 2.08556V3.6087H22.527C22.5992 3.60622 22.6707 3.62343 22.7339 3.6585C22.7971 3.69356 22.8496 3.74516 22.8857 3.80776C22.9218 3.87036 22.9402 3.9416 22.9389 4.01386C22.9377 4.08612 22.9168 4.15667 22.8784 4.21796L21.0038 7.49857C20.9681 7.56592 20.9137 7.62159 20.8473 7.65898C20.7808 7.69636 20.7284 7.71388 20.6523 7.70947Z" fill="#386DF3"/>
<path d="M9.17017 40V30.7206C9.17017 30.5963 9.21954 30.4771 9.30743 30.3892C9.39532 30.3013 9.51453 30.252 9.63882 30.252H31.3377C31.462 30.252 31.5812 30.3013 31.6691 30.3892C31.757 30.4771 31.8064 30.5963 31.8064 30.7206V40H9.17017Z" fill="#FBC946"/>
<path d="M20.6054 38.8985H20.5117C20.4398 38.8733 20.3781 38.8253 20.3358 38.7619C20.2936 38.6985 20.2731 38.6231 20.2774 38.547V36.649H17.9575C17.8903 36.6536 17.8231 36.6388 17.764 36.6063C17.705 36.5738 17.6565 36.525 17.6244 36.4657C17.5923 36.4064 17.5779 36.3392 17.583 36.272C17.588 36.2047 17.6123 36.1404 17.6529 36.0866L20.3711 32.0327C20.4154 31.9737 20.4771 31.9301 20.5475 31.9081C20.6179 31.8861 20.6935 31.8868 20.7635 31.9101C20.8334 31.9335 20.8943 31.9782 20.9375 32.0381C20.9806 32.0979 21.0038 32.1698 21.0038 32.2436L21.0507 34.2119H22.9956C23.0591 34.2106 23.1217 34.2265 23.1769 34.2579C23.2321 34.2894 23.2777 34.3351 23.3089 34.3904C23.3402 34.4457 23.3559 34.5084 23.3543 34.5719C23.3528 34.6353 23.3341 34.6972 23.3002 34.7509L20.8866 38.7345C20.8543 38.7858 20.8093 38.8279 20.7559 38.8566C20.7025 38.8853 20.6661 38.8998 20.6054 38.8985ZM13.2475 35.3133C12.8435 35.3133 12.4561 35.1528 12.1705 34.8672C11.8848 34.5815 11.7244 34.1941 11.7244 33.7902C11.7244 33.3862 11.8848 32.9988 12.1705 32.7131C12.4561 32.4275 12.8435 32.267 13.2475 32.267C13.6515 32.267 14.0389 32.4275 14.3245 32.7131C14.6102 32.9988 14.7706 33.3862 14.7706 33.7902C14.7706 34.1941 14.6102 34.5815 14.3245 34.8672C14.0389 35.1528 13.6515 35.3133 13.2475 35.3133ZM27.7525 35.3133C27.3485 35.3133 26.9611 35.1528 26.6755 34.8672C26.3898 34.5815 26.2293 34.1941 26.2293 33.7902C26.2293 33.3862 26.3898 32.9988 26.6755 32.7131C26.9611 32.4275 27.3485 32.267 27.7525 32.267C28.1564 32.267 28.5439 32.4275 28.8295 32.7131C29.1151 32.9988 29.2756 33.3862 29.2756 33.7902C29.2756 34.1941 29.1151 34.5815 28.8295 34.8672C28.5439 35.1528 28.1564 35.3133 27.7525 35.3133Z" fill="#386DF3"/>
<path d="M13.2476 33.0405C13.1364 33.0209 13.0223 33.0259 12.9132 33.0552C12.8042 33.0844 12.7028 33.1372 12.6164 33.2098C12.5299 33.2824 12.4604 33.373 12.4126 33.4753C12.3649 33.5777 12.3402 33.6892 12.3402 33.8021C12.3402 33.915 12.3649 34.0265 12.4126 34.1289C12.4604 34.2312 12.5299 34.3218 12.6164 34.3944C12.7028 34.467 12.8042 34.5198 12.9132 34.549C13.0223 34.5782 13.1364 34.5832 13.2476 34.5637C13.4527 34.5637 13.6494 34.4822 13.7944 34.3372C13.9394 34.1922 14.0209 33.9955 14.0209 33.7904C14.0209 33.5853 13.9394 33.3886 13.7944 33.2436C13.6494 33.0986 13.4527 33.0405 13.2476 33.0405ZM27.7526 33.0405C27.6414 33.0209 27.5273 33.0259 27.4182 33.0552C27.3092 33.0844 27.2078 33.1372 27.1213 33.2098C27.0349 33.2824 26.9653 33.373 26.9176 33.4753C26.8699 33.5777 26.8452 33.6892 26.8452 33.8021C26.8452 33.915 26.8699 34.0265 26.9176 34.1289C26.9653 34.2312 27.0349 34.3218 27.1213 34.3944C27.2078 34.467 27.3092 34.5198 27.4182 34.549C27.5273 34.5782 27.6414 34.5832 27.7526 34.5637C27.9577 34.5637 28.1544 34.4822 28.2994 34.3372C28.4444 34.1922 28.5259 33.9955 28.5259 33.7904C28.5259 33.5853 28.4444 33.3886 28.2994 33.2436C28.1544 33.0986 27.9577 33.0405 27.7526 33.0405Z" fill="#FBC946"/>
</g>
<defs>
<clipPath id="clip0_2100_3261">
<rect width="40" height="40" fill="white" transform="translate(0.5)"/>
</clipPath>
</defs>
</svg>
