<svg width="41" height="40" viewBox="0 0 41 40" fill="none" xmlns="http://www.w3.org/2000/svg">
<g clip-path="url(#clip0_2100_2330)">
<path d="M37.125 13.0938V29.7812H22.7344L24.4687 27.7656L28.6875 22.875L37.125 13.0938Z" fill="#AF8158"/>
<path d="M34.6406 10.2188L32.9062 12.2344L28.6875 17.125L26.2031 20L20.25 26.9062V10.2188H34.6406Z" fill="#AF8158"/>
<path d="M24.4687 10.2188V22.0156L20.25 26.9062V10.2188H24.4687Z" fill="#AF8158"/>
<path d="M28.6875 10.2188V17.125L26.2031 20L24.4688 22.0156V10.2188H28.6875Z" fill="#AF8158"/>
<path d="M24.4688 27.7656L28.6875 22.875V29.7813H24.4688V27.7656Z" fill="#AF8158"/>
<path d="M37.125 10.2188V13.0938L28.6875 22.875L24.4687 27.7656L22.7344 29.7812H20.25V26.9062L26.2031 20L28.6875 17.125L32.9062 12.2344L34.6406 10.2188H37.125Z" fill="#FFB431"/>
<path d="M37.125 13.0938V29.7812H32.9062V17.9844L37.125 13.0938Z" fill="#AF8158"/>
<path d="M32.9062 10.2188V12.2344L28.6875 17.125V10.2188H32.9062Z" fill="#AF8158"/>
<path d="M32.9062 17.9844V29.7813H28.6875V22.875L32.9062 17.9844Z" fill="#AF8158"/>
<path d="M20.25 10.2188H17.5V29.7812H20.25V10.2188Z" fill="#FFB431"/>
<path opacity="0.07" d="M20.25 10.2188H19.3906V29.7812H20.25V10.2188Z" fill="black"/>
<path opacity="0.07" d="M20.25 10.2188V26.9062L26.2031 20L28.6875 17.125L34.6406 10.2188H20.25ZM21.3906 23.7344V11.5313H31.9062L27.5469 16.5781L25.7344 18.6875L21.3906 23.7344Z" fill="black"/>
<path opacity="0.07" d="M37.125 29.7812V13.0938L31.1719 20L28.6875 22.875L22.7344 29.7812H37.125ZM36 16.2656V28.4687H25.4688L29.8281 23.4219L31.6406 21.3125L36 16.2656Z" fill="black"/>
<path d="M39.875 29.7812H17.5V32.9687H39.875V29.7812Z" fill="#FFB431"/>
<path opacity="0.07" d="M39.875 29.7812V32.9687H17.5V32H39.0469V29.7812H39.875Z" fill="black"/>
<path d="M39.875 7.03125H17.5V10.2188H39.875V7.03125Z" fill="#FFB431"/>
<path opacity="0.07" d="M39.875 7.03125V10.2188H17.5V9.20313H39V7.03125H39.875Z" fill="black"/>
<path opacity="0.07" d="M37.125 10.2188V13.0938L36.3906 13.9531V11.0781H33.9062L34.6406 10.2188H37.125Z" fill="black"/>
<path opacity="0.07" d="M23.4687 28.9219L22.7344 29.7813H20.25V26.9062L21 26.0469V28.9219H23.4687Z" fill="black"/>
<path d="M39.875 10.2188H37.125V29.7812H39.875V10.2188Z" fill="#FFB431"/>
<path opacity="0.07" d="M39.875 10.2188H39V29.7812H39.875V10.2188Z" fill="black"/>
<path d="M37.125 13.0938V29.7813H22.7344L24.4687 27.7656L28.6875 22.875L37.125 13.0938Z" stroke="#386DF3" stroke-miterlimit="10" stroke-linecap="round" stroke-linejoin="round"/>
<path d="M20.25 10.2188H17.5V29.7812H20.25V10.2188Z" stroke="#386DF3" stroke-miterlimit="10" stroke-linecap="round" stroke-linejoin="round"/>
<path d="M34.6406 10.2188L32.9062 12.2344L28.6875 17.125L26.2031 20L20.25 26.9062V10.2188H34.6406Z" stroke="#386DF3" stroke-miterlimit="10" stroke-linecap="round" stroke-linejoin="round"/>
<path d="M39.875 29.7812H17.5V32.9687H39.875V29.7812Z" stroke="#386DF3" stroke-miterlimit="10" stroke-linecap="round" stroke-linejoin="round"/>
<path d="M39.875 7.03125H17.5V10.2188H39.875V7.03125Z" stroke="#386DF3" stroke-miterlimit="10" stroke-linecap="round" stroke-linejoin="round"/>
<path d="M39.875 10.2188H37.125V29.7812H39.875V10.2188Z" stroke="#386DF3" stroke-miterlimit="10" stroke-linecap="round" stroke-linejoin="round"/>
<path d="M24.4687 10.2188V22.0156L20.25 26.9062V10.2188H24.4687Z" stroke="#386DF3" stroke-miterlimit="10" stroke-linecap="round" stroke-linejoin="round"/>
<path d="M22.7344 29.7813L24.4687 27.7656V29.7813H22.7344Z" stroke="#386DF3" stroke-miterlimit="10" stroke-linecap="round" stroke-linejoin="round"/>
<path d="M28.6875 10.2188V17.125L26.2031 20L24.4688 22.0156V10.2188H28.6875Z" stroke="#386DF3" stroke-miterlimit="10" stroke-linecap="round" stroke-linejoin="round"/>
<path d="M24.4688 27.7656L28.6875 22.875V29.7813H24.4688V27.7656Z" stroke="#386DF3" stroke-miterlimit="10" stroke-linecap="round" stroke-linejoin="round"/>
<path d="M37.125 10.2188V13.0938L28.6875 22.875L24.4687 27.7656L22.7344 29.7813H20.25V26.9062L26.2031 20L28.6875 17.125L32.9062 12.2344L34.6406 10.2188H37.125Z" stroke="#386DF3" stroke-miterlimit="10" stroke-linecap="round" stroke-linejoin="round"/>
<path d="M34.6406 10.2188L32.9062 12.2344V10.2188H34.6406Z" stroke="#386DF3" stroke-miterlimit="10" stroke-linecap="round" stroke-linejoin="round"/>
<path d="M37.125 13.0938V29.7813H32.9062V17.9844L37.125 13.0938Z" stroke="#386DF3" stroke-miterlimit="10" stroke-linecap="round" stroke-linejoin="round"/>
<path d="M32.9062 10.2188V12.2344L28.6875 17.125V10.2188H32.9062Z" stroke="#386DF3" stroke-miterlimit="10" stroke-linecap="round" stroke-linejoin="round"/>
<path d="M32.9062 17.9844V29.7813H28.6875V22.875L32.9062 17.9844Z" stroke="#386DF3" stroke-miterlimit="10" stroke-linecap="round" stroke-linejoin="round"/>
<path d="M15.4844 13.0938V29.7812H4.95312L6.23438 27.7656L9.3125 22.875L15.4844 13.0938Z" fill="#AF8158"/>
<path d="M13.6719 10.2188L12.4062 12.2344L9.3125 17.125L7.5 20L3.14062 26.9062V10.2188H13.6719Z" fill="#AF8158"/>
<path d="M6.23438 10.2188V22.0156L3.14062 26.9062V10.2188H6.23438Z" fill="#AF8158"/>
<path d="M9.3125 10.2188V17.125L7.5 20L6.23438 22.0156V10.2188H9.3125Z" fill="#AF8158"/>
<path d="M6.23438 27.7656L9.3125 22.875V29.7813H6.23438V27.7656Z" fill="#AF8158"/>
<path d="M15.4844 10.2188V13.0938L9.3125 22.875L6.23438 27.7656L4.95312 29.7812H3.14062V26.9062L7.5 20L9.3125 17.125L12.4062 12.2344L13.6719 10.2188H15.4844Z" fill="#FFB431"/>
<path d="M15.4844 13.0938V29.7812H12.4062V17.9844L15.4844 13.0938Z" fill="#AF8158"/>
<path d="M12.4062 10.2188V12.2344L9.3125 17.125V10.2188H12.4062Z" fill="#AF8158"/>
<path d="M12.4062 17.9844V29.7813H9.3125V22.875L12.4062 17.9844Z" fill="#AF8158"/>
<path d="M3.14062 10.2188H1.125V29.7812H3.14062V10.2188Z" fill="#FFB431"/>
<path opacity="0.07" d="M3.14062 10.2188H2.51562V29.7812H3.14062V10.2188Z" fill="black"/>
<path opacity="0.07" d="M3.14062 10.2188V26.9062L7.5 20L9.3125 17.125L13.6719 10.2188H3.14062ZM3.96875 23.7344V11.5313H11.6719L8.48437 16.5781L7.15625 18.6875L3.96875 23.7344Z" fill="black"/>
<path opacity="0.07" d="M15.4844 29.7812V13.0938L11.125 20L9.3125 22.875L4.95312 29.7812H15.4844ZM14.6562 16.2656V28.4687H6.95312L10.1406 23.4219L11.4687 21.3125L14.6562 16.2656Z" fill="black"/>
<path d="M17.5 29.7812H1.125V32.9687H17.5V29.7812Z" fill="#FFB431"/>
<path opacity="0.07" d="M17.5 29.7812V32.9687H1.125V32H16.8906V29.7812H17.5Z" fill="black"/>
<path d="M17.5 7.03125H1.125V10.2188H17.5V7.03125Z" fill="#FFB431"/>
<path opacity="0.07" d="M17.5 7.03125V10.2188H1.125V9.20313H16.8594V7.03125H17.5Z" fill="black"/>
<path opacity="0.07" d="M15.4844 10.2188V13.0938L14.9531 13.9531V11.0781H13.1406L13.6719 10.2188H15.4844Z" fill="black"/>
<path opacity="0.07" d="M5.5 28.9219L4.95312 29.7813H3.14062V26.9062L3.67187 26.0469V28.9219H5.5Z" fill="black"/>
<path d="M17.5 10.2188H15.4844V29.7812H17.5V10.2188Z" fill="#FFB431"/>
<path opacity="0.07" d="M17.5 10.2188H16.8594V29.7812H17.5V10.2188Z" fill="black"/>
<path d="M15.4844 13.0938V29.7813H4.95312L6.23438 27.7656L9.3125 22.875L15.4844 13.0938Z" stroke="#386DF3" stroke-miterlimit="10" stroke-linecap="round" stroke-linejoin="round"/>
<path d="M3.14062 10.2188H1.125V29.7812H3.14062V10.2188Z" stroke="#386DF3" stroke-miterlimit="10" stroke-linecap="round" stroke-linejoin="round"/>
<path d="M13.6719 10.2188L12.4062 12.2344L9.3125 17.125L7.5 20L3.14062 26.9062V10.2188H13.6719Z" stroke="#386DF3" stroke-miterlimit="10" stroke-linecap="round" stroke-linejoin="round"/>
<path d="M17.5 29.7812H1.125V32.9687H17.5V29.7812Z" stroke="#386DF3" stroke-miterlimit="10" stroke-linecap="round" stroke-linejoin="round"/>
<path d="M17.5 7.03125H1.125V10.2188H17.5V7.03125Z" stroke="#386DF3" stroke-miterlimit="10" stroke-linecap="round" stroke-linejoin="round"/>
<path d="M17.5 10.2188H15.4844V29.7812H17.5V10.2188Z" stroke="#386DF3" stroke-miterlimit="10" stroke-linecap="round" stroke-linejoin="round"/>
<path d="M6.23438 10.2188V22.0156L3.14062 26.9062V10.2188H6.23438Z" stroke="#386DF3" stroke-miterlimit="10" stroke-linecap="round" stroke-linejoin="round"/>
<path d="M4.95312 29.7813L6.23438 27.7656V29.7813H4.95312Z" stroke="#386DF3" stroke-miterlimit="10" stroke-linecap="round" stroke-linejoin="round"/>
<path d="M9.3125 10.2188V17.125L7.5 20L6.23438 22.0156V10.2188H9.3125Z" stroke="#386DF3" stroke-miterlimit="10" stroke-linecap="round" stroke-linejoin="round"/>
<path d="M6.23438 27.7656L9.3125 22.875V29.7813H6.23438V27.7656Z" stroke="#386DF3" stroke-miterlimit="10" stroke-linecap="round" stroke-linejoin="round"/>
<path d="M15.4844 10.2188V13.0938L9.3125 22.875L6.23438 27.7656L4.95313 29.7813H3.14062V26.9062L7.5 20L9.3125 17.125L12.4062 12.2344L13.6719 10.2188H15.4844Z" stroke="#386DF3" stroke-miterlimit="10" stroke-linecap="round" stroke-linejoin="round"/>
<path d="M13.6719 10.2188L12.4062 12.2344V10.2188H13.6719Z" stroke="#386DF3" stroke-miterlimit="10" stroke-linecap="round" stroke-linejoin="round"/>
<path d="M15.4844 13.0938V29.7813H12.4062V17.9844L15.4844 13.0938Z" stroke="#386DF3" stroke-miterlimit="10" stroke-linecap="round" stroke-linejoin="round"/>
<path d="M12.4062 10.2188V12.2344L9.3125 17.125V10.2188H12.4062Z" stroke="#386DF3" stroke-miterlimit="10" stroke-linecap="round" stroke-linejoin="round"/>
<path d="M12.4062 17.9844V29.7813H9.3125V22.875L12.4062 17.9844Z" stroke="#386DF3" stroke-miterlimit="10" stroke-linecap="round" stroke-linejoin="round"/>
</g>
<defs>
<clipPath id="clip0_2100_2330">
<rect width="40" height="40" fill="white" transform="translate(0.5)"/>
</clipPath>
</defs>
</svg>
