<svg width="25" height="24" viewBox="0 0 25 24" fill="none" xmlns="http://www.w3.org/2000/svg">
<path d="M20.14 6.81994L14.38 2.78994C12.81 1.68994 10.4 1.74994 8.89 2.91994L3.88 6.82994C2.88 7.60994 2.09 9.20994 2.09 10.4699V17.3699C2.09 19.9199 4.16 21.9999 6.71 21.9999H17.49C20.04 21.9999 22.11 19.9299 22.11 17.3799V10.5999C22.11 9.24994 21.24 7.58994 20.14 6.81994ZM12.85 17.9999C12.85 18.4099 12.51 18.7499 12.1 18.7499C11.69 18.7499 11.35 18.4099 11.35 17.9999V14.9999C11.35 14.5899 11.69 14.2499 12.1 14.2499C12.51 14.2499 12.85 14.5899 12.85 14.9999V17.9999Z" fill="#0C1B54"/>
</svg>
