<svg width="76" height="55" viewBox="0 0 76 55" fill="none" xmlns="http://www.w3.org/2000/svg">
<g filter="url(#filter0_d_65_794)">
<circle cx="38" cy="25" r="16" fill="#6D7698"/>
</g>
<path d="M42.0996 19.2006C41.6996 18.9006 40.9996 18.9006 40.6996 19.4006L33.6996 28.4006L30.2996 24.2006C29.9996 23.8006 29.2996 23.7006 28.8996 24.0006C28.4996 24.3006 28.3996 25.0006 28.6996 25.4006L32.8996 30.6006C33.0996 30.9006 33.3996 31.0006 33.6996 31.0006C33.9996 31.0006 34.2996 30.9006 34.4996 30.6006L42.2996 20.6006C42.6996 20.2006 42.5996 19.6006 42.0996 19.2006Z" fill="white"/>
<path d="M47.0996 19.2006C46.6996 18.9006 45.9996 18.9006 45.6996 19.4006L38.6996 28.4006L38.0996 27.6006L36.7996 29.2006L37.8996 30.6006C38.0996 30.8006 38.3996 31.0006 38.6996 31.0006C38.9996 31.0006 39.2996 30.9006 39.4996 30.6006L47.2996 20.6006C47.6996 20.2006 47.5996 19.5006 47.0996 19.2006Z" fill="white"/>
<path d="M34.1996 26.1005L35.4996 24.5005L35.2996 24.3005C34.9996 23.8005 34.2996 23.7005 33.8996 24.0005C33.4996 24.3005 33.3996 25.0005 33.6996 25.4005L34.1996 26.1005Z" fill="white"/>
<defs>
<filter id="filter0_d_65_794" x="0.181818" y="0.272728" width="75.6364" height="75.6364" filterUnits="userSpaceOnUse" color-interpolation-filters="sRGB">
<feFlood flood-opacity="0" result="BackgroundImageFix"/>
<feColorMatrix in="SourceAlpha" type="matrix" values="0 0 0 0 0 0 0 0 0 0 0 0 0 0 0 0 0 0 127 0" result="hardAlpha"/>
<feOffset dy="13.0909"/>
<feGaussianBlur stdDeviation="10.9091"/>
<feComposite in2="hardAlpha" operator="out"/>
<feColorMatrix type="matrix" values="0 0 0 0 0.00522569 0 0 0 0 0.0545245 0 0 0 0 0.179167 0 0 0 0.16 0"/>
<feBlend mode="normal" in2="BackgroundImageFix" result="effect1_dropShadow_65_794"/>
<feBlend mode="normal" in="SourceGraphic" in2="effect1_dropShadow_65_794" result="shape"/>
</filter>
</defs>
</svg>
