<svg width="25" height="24" viewBox="0 0 25 24" fill="none" xmlns="http://www.w3.org/2000/svg">
<path d="M17.6999 20.75H7.69992C3.44992 20.75 2.05992 19.48 1.95992 15.52C1.95992 15.32 2.02992 15.12 2.16992 14.98C2.30992 14.84 2.49992 14.75 2.70992 14.75C4.21992 14.75 5.44992 13.51 5.44992 12C5.44992 10.49 4.21992 9.25 2.70992 9.25C2.50992 9.25 2.31992 9.17 2.16992 9.02C2.01992 8.87 1.94992 8.68 1.95992 8.48C2.05992 4.52 3.44992 3.25 7.69992 3.25H17.6999C22.1099 3.25 23.4499 4.59 23.4499 9V15C23.4499 19.41 22.1099 20.75 17.6999 20.75ZM3.48992 16.18C3.65992 18.72 4.51992 19.25 7.69992 19.25H17.6999C21.2799 19.25 21.9499 18.57 21.9499 15V9C21.9499 5.43 21.2799 4.75 17.6999 4.75H7.69992C4.51992 4.75 3.65992 5.29 3.48992 7.82C5.45992 8.2 6.94992 9.93 6.94992 12C6.94992 14.07 5.45992 15.8 3.48992 16.18Z" fill="#3D4976"/>
<path d="M9.69995 8.25C9.28995 8.25 8.94995 7.91 8.94995 7.5V4C8.94995 3.59 9.28995 3.25 9.69995 3.25C10.11 3.25 10.45 3.59 10.45 4V7.5C10.45 7.91 10.11 8.25 9.69995 8.25Z" fill="#3D4976"/>
<path d="M9.69995 20.75C9.28995 20.75 8.94995 20.41 8.94995 20V16.5C8.94995 16.09 9.28995 15.75 9.69995 15.75C10.11 15.75 10.45 16.09 10.45 16.5V20C10.45 20.41 10.11 20.75 9.69995 20.75Z" fill="#3D4976"/>
<path d="M13.74 15.6501C13.5 15.6501 13.26 15.5701 13.06 15.4301C12.7 15.1701 12.52 14.7301 12.6 14.2901L12.81 13.1001L11.94 12.2501C11.62 11.9401 11.51 11.4801 11.64 11.0601C11.78 10.6401 12.14 10.3301 12.58 10.2701L13.78 10.0901L14.32 9.0001C14.52 8.6001 14.92 8.3501 15.36 8.3501C15.81 8.3501 16.21 8.6001 16.4 9.0001L16.94 10.0901L18.14 10.2701C18.58 10.3301 18.94 10.6401 19.08 11.0601C19.22 11.4801 19.1 11.9401 18.78 12.2501L17.91 13.1001L18.12 14.2901C18.2 14.7301 18.02 15.1701 17.66 15.4301C17.3 15.6901 16.83 15.7201 16.44 15.5201L15.37 14.9601L14.29 15.5201C14.12 15.6101 13.93 15.6501 13.74 15.6501ZM13.47 11.6501L13.98 12.1501C14.26 12.4201 14.38 12.8001 14.32 13.1801L14.2 13.8801L14.83 13.5501C15.17 13.3701 15.57 13.3701 15.91 13.5501L16.54 13.8801L16.42 13.1801C16.36 12.7901 16.48 12.4101 16.76 12.1501L17.27 11.6501L16.57 11.5501C16.19 11.4901 15.86 11.2501 15.69 10.9101L15.38 10.2701L15.07 10.9101C14.9 11.2501 14.57 11.4901 14.19 11.5501L13.47 11.6501Z" fill="#3D4976"/>
</svg>
