<svg width="25" height="24" viewBox="0 0 25 24" fill="none" xmlns="http://www.w3.org/2000/svg">
<path d="M17.3498 3.86011H10.6098V6.88011C10.6098 7.27011 10.2898 7.58011 9.90982 7.58011C9.52982 7.58011 9.20983 7.27011 9.20983 6.88011V3.86011H8.04982C4.09982 3.86011 2.79982 5.04011 2.70982 8.73011C2.69982 8.91011 2.77982 9.10011 2.90982 9.23011C3.03982 9.37011 3.20982 9.44011 3.40982 9.44011C4.80982 9.44011 5.95983 10.6001 5.95983 12.0001C5.95983 13.4001 4.80982 14.5601 3.40982 14.5601C3.21982 14.5601 3.03982 14.6301 2.90982 14.7701C2.77982 14.9001 2.69982 15.0901 2.70982 15.2701C2.79982 18.9601 4.09982 20.1401 8.04982 20.1401H9.20983V17.1201C9.20983 16.7301 9.52982 16.4201 9.90982 16.4201C10.2898 16.4201 10.6098 16.7301 10.6098 17.1201V20.1401H17.3498C21.4498 20.1401 22.6998 18.8901 22.6998 14.7901V9.21011C22.6998 5.11011 21.4498 3.86011 17.3498 3.86011ZM19.1698 11.9001L18.2398 12.8001C18.1998 12.8301 18.1898 12.8901 18.1998 12.9401L18.4198 14.2101C18.4598 14.4401 18.3698 14.6801 18.1698 14.8201C17.9798 14.9601 17.7298 14.9801 17.5198 14.8701L16.3698 14.2701C16.3298 14.2501 16.2698 14.2501 16.2298 14.2701L15.0798 14.8701C14.9898 14.9201 14.8898 14.9401 14.7898 14.9401C14.6598 14.9401 14.5398 14.9001 14.4298 14.8201C14.2398 14.6801 14.1398 14.4501 14.1798 14.2101L14.3998 12.9401C14.4098 12.8901 14.3898 12.8401 14.3598 12.8001L13.4298 11.9001C13.2598 11.7401 13.1998 11.4901 13.2698 11.2701C13.3398 11.0401 13.5298 10.8801 13.7698 10.8501L15.0498 10.6601C15.0998 10.6501 15.1398 10.6201 15.1698 10.5801L15.7398 9.42011C15.8498 9.21011 16.0598 9.08011 16.2998 9.08011C16.5398 9.08011 16.7498 9.21011 16.8498 9.42011L17.4198 10.5801C17.4398 10.6301 17.4798 10.6601 17.5298 10.6601L18.8098 10.8501C19.0498 10.8801 19.2398 11.0501 19.3098 11.2701C19.3998 11.4901 19.3398 11.7301 19.1698 11.9001Z" fill="#0C1B54"/>
</svg>
