<svg width="101" height="100" viewBox="0 0 101 100" fill="none" xmlns="http://www.w3.org/2000/svg">
<g id="Group">
<path id="Vector" d="M50.5 100C78.1142 100 100.5 77.6142 100.5 50C100.5 22.3858 78.1142 0 50.5 0C22.8858 0 0.5 22.3858 0.5 50C0.5 77.6142 22.8858 100 50.5 100Z" fill="#55C56D"/>
<path id="Vector_2" d="M37.7236 72.5553L63.4334 98.265C84.7268 92.5868 100.5 73.1862 100.5 50.0001V48.5805L80.3104 29.9685L37.7236 72.5553Z" fill="#2AB749"/>
<path id="Vector_3" d="M51.7616 61.1987C53.9698 63.4069 53.9698 67.1924 51.7616 69.4006L47.1874 73.9747C44.9792 76.1829 41.1938 76.1829 38.9855 73.9747L18.954 53.7854C16.7458 51.5772 16.7458 47.7918 18.954 45.5836L23.5281 41.0094C25.7363 38.8012 29.5218 38.8012 31.73 41.0094L51.7616 61.1987Z" fill="white"/>
<path id="Vector_4" d="M69.2695 26.3407C71.4777 24.1325 75.2632 24.1325 77.4714 26.3407L82.0456 30.9149C84.2538 33.1231 84.2538 36.9085 82.0456 39.1167L47.3453 73.6593C45.1371 75.8675 41.3516 75.8675 39.1434 73.6593L34.5692 69.0852C32.361 66.877 32.361 63.0915 34.5692 60.8833L69.2695 26.3407Z" fill="white"/>
</g>
</svg>
