<svg width="41" height="40" viewBox="0 0 41 40" fill="none" xmlns="http://www.w3.org/2000/svg">
<path d="M18.7548 39.9999H16.828C16.1359 39.9999 15.5855 39.4193 15.6224 38.7282L16.152 27.8624C16.1545 27.8105 16.1496 27.7585 16.1374 27.7079L15.5544 25.2842L18.5388 23.7795L20.0282 25.2842L19.4269 27.7842L19.9602 38.7283C19.9973 39.4193 19.4468 39.9999 18.7548 39.9999Z" fill="#C38B6F"/>
<path d="M20.9404 27.7079L21.5234 25.2842L18.539 23.7795L19.109 25.2842L18.5259 27.7079C18.5138 27.7585 18.5089 27.8105 18.5114 27.8624L19.0409 38.7282C19.0779 39.4193 18.5275 39.9999 17.8354 39.9999H20.2499C20.942 39.9999 21.4924 39.4193 21.4555 38.7282L20.9259 27.8624C20.9233 27.8105 20.9282 27.7585 20.9404 27.7079Z" fill="#AF785D"/>
<path d="M32.2889 5L31.2067 6.25L32.2889 7.5H36.0817C36.7484 7.5 37.2889 8.04047 37.2889 8.70727V13.7566C37.2889 14.0382 37.1905 14.311 37.0107 14.5276C36.8308 14.7443 36.5809 14.8913 36.3042 14.9432L19.915 18.0162C18.3924 18.3016 17.289 19.6312 17.289 21.1804V22.7842L18.539 23.7796L20.1704 22.7842V21.5328C20.1704 21.251 20.269 20.978 20.4491 20.7613C20.6292 20.5445 20.8795 20.3976 21.1566 20.346L35.7006 17.6366C37.2249 17.3527 38.3224 15.7506 38.3224 14.2V8.21938C38.3224 6.44141 36.7465 5 34.9685 5H32.2889Z" fill="#565E75"/>
<path d="M36.5696 5H34.0696C35.8476 5 37.289 6.44133 37.289 8.21938V14.8605C37.289 16.0287 36.6617 17.0717 35.7006 17.6366L37.1593 17.3649C38.6836 17.0809 39.789 15.7506 39.789 14.2V8.21938C39.7889 6.44133 38.3476 5 36.5696 5Z" fill="#4B5165"/>
<path d="M29.5978 12.5H17.4657L12.0507 9.29172L7.46682 12.5H2.41839C1.75167 12.5 1.21112 11.9595 1.21112 11.2927V1.20727C1.21112 0.540469 1.75159 0 2.41839 0L13.7157 3.0675L22.4657 0H29.5978C30.2646 0 30.8051 0.540469 30.8051 1.20727V11.2927C30.8051 11.9595 30.2646 12.5 29.5978 12.5Z" fill="#386DF3"/>
<path d="M3.65641 8.78391C4.37422 8.81773 4.9668 8.2457 4.9668 7.53531C4.9668 7.53531 5.48406 6.09039 6.15641 6.05875C6.87422 6.02492 7.4668 6.82492 7.4668 7.53531V12.5H9.9668L10.4796 11.2853C10.4796 10.6123 10.4841 10.0331 11.1564 10.0014C11.8742 9.96758 11.8091 10.5396 11.8091 11.25V12.5H15.5859V7.5C15.5859 6.80961 15.5265 6.25 16.2168 6.25C16.9072 6.25 16.8851 6.80961 16.8851 7.5L17.4668 8.73352C17.4668 9.42383 18.0264 9.98352 18.7168 9.98352C19.4072 9.98352 19.9668 9.42391 19.9668 8.73352L20.9641 0.876016L13.7156 3.0675L4.96563 0H2.4668V7.5C2.4668 8.17305 2.98406 8.75227 3.65641 8.78391ZM31.0816 0H28.6672C29.334 0 29.8745 0.540469 29.8745 1.20727V11.2927C29.8745 11.9595 29.334 12.5 28.6672 12.5H31.0817C31.7485 12.5 32.289 11.9595 32.289 11.2927V1.20727C32.2889 0.540469 31.7484 0 31.0816 0Z" fill="#386DF3"/>
<path d="M20.0171 25.2842H15.2718C15.2084 25.2842 15.1456 25.2717 15.087 25.2474C15.0284 25.2232 14.9752 25.1876 14.9304 25.1428C14.8855 25.0979 14.8499 25.0447 14.8257 24.9861C14.8014 24.9275 14.7889 24.8647 14.7889 24.8013V23.2671C14.7889 23.2037 14.8014 23.1409 14.8257 23.0823C14.8499 23.0237 14.8855 22.9704 14.9304 22.9256C14.9752 22.8808 15.0284 22.8452 15.087 22.8209C15.1456 22.7967 15.2084 22.7842 15.2718 22.7842H20.0171C20.0806 22.7842 20.1434 22.7967 20.2019 22.8209C20.2605 22.8452 20.3138 22.8808 20.3586 22.9256C20.4035 22.9704 20.439 23.0237 20.4633 23.0823C20.4876 23.1409 20.5 23.2037 20.5 23.2671V24.8013C20.5 24.9294 20.4492 25.0522 20.3586 25.1427C20.268 25.2333 20.1452 25.2842 20.0171 25.2842Z" fill="#905B47"/>
<path d="M21.8061 22.7842H19.3915C19.455 22.7842 19.5178 22.7967 19.5763 22.8209C19.6349 22.8452 19.6882 22.8808 19.733 22.9256C19.7779 22.9704 19.8134 23.0237 19.8377 23.0823C19.862 23.1409 19.8744 23.2037 19.8744 23.2671V24.8013C19.8744 24.8647 19.862 24.9275 19.8377 24.9861C19.8134 25.0447 19.7779 25.0979 19.733 25.1428C19.6882 25.1876 19.6349 25.2232 19.5763 25.2474C19.5178 25.2717 19.455 25.2842 19.3915 25.2842H21.8061C21.8695 25.2842 21.9323 25.2717 21.9909 25.2474C22.0495 25.2232 22.1027 25.1876 22.1476 25.1428C22.1924 25.0979 22.228 25.0447 22.2522 24.9861C22.2765 24.9275 22.289 24.8647 22.289 24.8013V23.2671C22.289 23.2037 22.2765 23.1409 22.2522 23.0823C22.228 23.0237 22.1924 22.9704 22.1476 22.9256C22.1027 22.8808 22.0495 22.8452 21.9909 22.8209C21.9323 22.7967 21.8695 22.7842 21.8061 22.7842Z" fill="#844F3E"/>
<path d="M6.21564 13.75C6.90599 13.75 7.46564 13.1904 7.46564 12.5C7.46564 11.8096 6.90599 11.25 6.21564 11.25C5.52528 11.25 4.96564 11.8096 4.96564 12.5C4.96564 13.1904 5.52528 13.75 6.21564 13.75Z" fill="#FFB431"/>
<path d="M11.0279 22.5C11.7182 22.5 12.2779 21.9404 12.2779 21.25C12.2779 20.5596 11.7182 20 11.0279 20C10.3375 20 9.77789 20.5596 9.77789 21.25C9.77789 21.9404 10.3375 22.5 11.0279 22.5Z" fill="#FFB431"/>
<path d="M4.96564 0V7.5C4.96564 8.17305 5.4829 8.75227 6.15525 8.78391C6.87306 8.81773 7.46564 8.2457 7.46564 7.53531V5.66031C7.46564 4.98727 7.9829 4.40813 8.65525 4.37641C9.37306 4.34258 9.96564 4.91461 9.96564 5.625V16.2147C9.96564 16.8877 10.4829 17.467 11.1552 17.4986C11.8731 17.5324 12.4656 16.9604 12.4656 16.25V11.2853C12.4656 10.6123 12.9829 10.0331 13.6552 10.0014C14.3731 9.96758 14.9656 10.5396 14.9656 11.25V13.7147C14.9656 14.3877 15.4829 14.967 16.1552 14.9986C16.8731 15.0324 17.4656 14.4604 17.4656 13.75V7.5C17.4656 6.80961 18.0252 6.25 18.7156 6.25C19.406 6.25 19.9656 6.80961 19.9656 7.5V8.73352C19.9656 9.42391 20.5252 9.98352 21.2156 9.98352C21.906 9.98352 22.4656 9.42391 22.4656 8.73352V0H4.96564Z" fill="#FFB431"/>
<path d="M19.967 0V8.73352C19.967 8.74703 19.9668 8.76047 19.9664 8.77391C19.9877 9.44555 20.5389 9.98352 21.2157 9.98352C21.9061 9.98352 22.4657 9.42391 22.4657 8.73352V0H19.967ZM29.7886 3.10328C29.4519 3.10328 29.185 2.82836 29.185 2.49969C29.185 2.16688 29.4567 1.89664 29.7888 1.89664C30.1268 1.89664 30.3923 2.17094 30.3923 2.49969C30.3924 2.57899 30.3769 2.65754 30.3466 2.73082C30.3163 2.80411 30.2718 2.8707 30.2157 2.92677C30.1597 2.98285 30.0931 3.0273 30.0198 3.05759C29.9465 3.08788 29.8679 3.1034 29.7886 3.10328ZM28.5387 5.60391C28.2168 5.60391 27.9351 5.34164 27.9351 5.00031C27.9351 4.6257 28.2463 4.39648 28.5418 4.39648C28.8698 4.39648 29.1424 4.66391 29.1424 5.00031C29.1424 5.33789 28.867 5.60391 28.5387 5.60391ZM26.0389 3.92422C25.7096 3.92422 25.4353 3.65734 25.4353 3.32141C25.4353 2.99609 25.6992 2.71758 26.0389 2.71758C26.3682 2.71758 26.6425 2.98406 26.6425 3.32141C26.6425 3.65172 26.3743 3.92422 26.0389 3.92422Z" fill="#FFB431"/>
</svg>
