<svg width="41" height="40" viewBox="0 0 41 40" fill="none" xmlns="http://www.w3.org/2000/svg">
<path d="M38.1 25.7805V27.0242H30.3464V25.7805H37.9113H38.1Z" fill="#FFB431"/>
<path d="M37.491 22.9929V24.9485H30.921V22.1781C30.921 21.5348 30.3978 21.0116 29.7546 21.0116H24.8914V15.814H30.2863C34.2661 15.814 37.491 19.0303 37.491 22.9929Z" fill="#386DF3"/>
<path d="M35.6556 33.1394C35.9558 33.6626 35.9558 34.2716 35.6556 34.7948C35.3554 35.318 34.8236 35.6182 34.2146 35.6182C33.6142 35.6182 33.0739 35.3094 32.7737 34.7948C32.4735 34.2716 32.4735 33.6626 32.7737 33.1394L34.2146 30.6607L35.6556 33.1394ZM28.5281 6.73941C28.5281 7.1168 28.3823 7.45988 28.1078 7.71719C27.8333 7.9745 27.4731 8.11173 27.0871 8.086L21.2462 7.73434C21.3491 7.41699 21.4092 7.08249 21.4092 6.73083C21.4092 6.38775 21.3577 6.05325 21.2548 5.74448L27.0871 5.39282H27.1901C27.9277 5.39282 28.5281 5.99321 28.5281 6.73941ZM21.332 12.7176V13.7382H15.0965V12.7176C15.0965 12.6318 15.1651 12.5718 15.2509 12.5718H21.1776C21.2634 12.5718 21.332 12.6404 21.332 12.7176Z" fill="#386DF3"/>
<path d="M20.5772 6.73092C20.5772 7.1512 20.4657 7.55432 20.2684 7.8974C20.1055 8.18901 19.8739 8.43775 19.608 8.63502C19.222 8.91806 18.7417 9.0896 18.2185 9.0896C17.7382 9.0896 17.2922 8.94379 16.9234 8.70363C16.8805 8.66075 16.8291 8.62644 16.7776 8.60071C16.5546 8.42917 16.3659 8.21475 16.2115 7.97459C16.1944 7.9317 16.1686 7.88882 16.1429 7.85451C15.9628 7.52859 15.8599 7.14262 15.8599 6.74808C15.8599 6.31923 15.9714 5.92469 16.1772 5.57303C16.5803 4.86972 17.3437 4.3894 18.2185 4.3894C19.102 4.3894 19.8739 4.87829 20.277 5.59018C20.4657 5.92469 20.5772 6.31065 20.5772 6.73092Z" fill="#386DF3"/>
<path d="M19.4193 9.68135V11.7398H17.0349V9.68993C17.4037 9.83574 17.7982 9.92151 18.2185 9.92151C18.6474 9.91293 19.0505 9.82716 19.4193 9.68135ZM9.35848 5.38428L15.1908 5.72736C15.0879 6.04471 15.0279 6.37921 15.0279 6.73087C15.0279 7.07395 15.0793 7.40845 15.1908 7.7258L9.35848 8.07745C8.97251 8.10319 8.61228 7.97453 8.33781 7.70864C8.07193 7.45133 7.91754 7.10825 7.91754 6.73087C7.91754 5.98467 8.52651 5.38428 9.26413 5.38428H9.35848Z" fill="#FFB431"/>
<path d="M5.86768 15.8225H11.5371V21.0202H5.86768V15.8225Z" fill="#386DF3"/>
<path d="M5.01854 21.4405V22.8128C5.01854 23.9965 4.07507 24.9828 2.90002 25.0343V11.8171C4.07507 11.8686 5.01854 12.855 5.01854 14.0472V15.4023V21.4405ZM24.0681 21.5091V22.1782C24.0681 22.221 24.0252 22.2553 23.9823 22.2553H12.4548C12.4119 22.2553 12.369 22.2125 12.369 22.1696V21.5435C12.3776 21.5091 12.3862 21.4748 12.3862 21.432C12.3862 21.3891 12.3776 21.3548 12.369 21.3205V15.4967C12.3776 15.4624 12.3862 15.4281 12.3862 15.3937C12.3862 15.3594 12.3776 15.3166 12.369 15.2822V14.6475C12.369 14.6047 12.4033 14.5618 12.4548 14.5618H14.5905C14.6248 14.5704 14.6591 14.5789 14.702 14.5789C14.7449 14.5789 14.7792 14.5704 14.8135 14.5618H21.6836C21.7094 14.5704 21.7351 14.5704 21.7608 14.5704C21.7866 14.5704 21.8123 14.5704 21.838 14.5618H23.9909C24.0337 14.5618 24.0766 14.5961 24.0766 14.6475V21.3462C24.0681 21.3719 24.0681 21.3976 24.0681 21.4234C24.0595 21.4577 24.0595 21.492 24.0681 21.5091Z" fill="#FFB431"/>
</svg>
