<svg width="41" height="40" viewBox="0 0 41 40" fill="none" xmlns="http://www.w3.org/2000/svg">
<g clip-path="url(#clip0_2100_1496)">
<path d="M26.1562 9.17188L26.1719 15.7344C26.1719 17.8906 24.4062 19.0312 22.9219 19.0312C22.3125 19.0312 18.5469 19 14.3125 18.9688H14.1094C12.6406 18.9531 11.1406 18.9531 9.67188 18.9375C5.10938 18.9062 1.125 18.8594 1.125 18.8594V9.96875C1.125 7.82812 2.03125 6.125 4.92188 6.125L23.1094 6.09375C25.6562 6.09375 26.1562 7.8125 26.1562 9.17188Z" fill="#386DF3"/>
<path opacity="0.07" d="M26.1719 15.7344C26.1719 17.8906 24.4062 19.0312 22.9219 19.0312C22.3125 19.0312 18.5469 19 14.3125 18.9688H14.1094C12.6406 18.9531 11.1406 18.9531 9.67188 18.9375C5.10938 18.9062 1.125 18.8594 1.125 18.8594V17.1406C2.71875 17.1562 5.0625 17.1719 7.59375 17.1875C9.04688 17.2031 10.5625 17.2187 12.0312 17.2187H12.2344C16.4688 17.25 20.2344 17.2812 20.8438 17.2812C22.3281 17.2812 24.0938 16.1562 24.0938 13.9844L24.0781 7.42188C24.0781 7.01563 24.0312 6.5625 23.8906 6.14062C25.75 6.45312 26.1406 7.9375 26.1562 9.15625L26.1719 15.7344Z" fill="black"/>
<path d="M12.6563 33.8906L1.15625 33.9062C1.15625 33.9062 1.14062 26.5625 1.14062 18.875C1.14062 18.875 5.125 18.9062 9.6875 18.9531L9.64062 24.6875V24.7031L9.60938 28.75H12.6563C14.6875 28.7344 14.7031 33.8906 12.6563 33.8906Z" fill="#FFB431"/>
<path opacity="0.07" d="M12.6563 33.8907L1.15625 33.9063L10.4219 33.8907C12.4219 33.8907 12.4531 28.9063 10.5156 28.75H12.6563C14.6875 28.7344 14.7031 33.8907 12.6563 33.8907Z" fill="black"/>
<path opacity="0.07" d="M9.6875 18.9374L9.67188 20.7343C5.57812 20.7031 1.95312 20.6718 1.14062 20.6718C1.14062 20.0781 1.14062 19.4843 1.14062 18.8749C1.14063 18.8593 5.125 18.9062 9.6875 18.9374Z" fill="black"/>
<path d="M30.4219 13.9062C30.25 14.9375 29.8594 15.7344 29.2656 15.7344H26.1562L26.1406 9.17188H29.25C29.7969 9.17188 30.1719 9.85937 30.3594 10.7969C30.5781 11.7344 30.5937 12.9219 30.4219 13.9062Z" fill="#5E6D72"/>
<path opacity="0.07" d="M27.5937 9.17188L27.6094 15.7344H26.1719L26.1562 9.17188H27.5937C27.6094 9.17188 27.5781 9.17188 27.5937 9.17188Z" fill="black"/>
<path d="M37.2812 13.8906L30.4219 13.9062C30.5938 12.9219 30.5781 11.7344 30.375 10.7812L37.2656 10.7656C40.7344 10.7812 40.75 13.8906 37.2812 13.8906Z" fill="#FFB431"/>
<path opacity="0.1" d="M31.7656 13.9063H30.4375C30.6094 12.9219 30.5938 11.7344 30.3906 10.7969H31.7188C31.8906 11.75 31.8906 12.9219 31.7656 13.9063Z" fill="black"/>
<path d="M26.1562 9.17188L26.1719 15.7344C26.1719 17.8906 24.4062 19.0313 22.9219 19.0313C22.3125 19.0313 18.5469 19 14.3125 18.9688H14.1094C12.6406 18.9531 11.1406 18.9531 9.67188 18.9375C5.10938 18.9062 1.125 18.8594 1.125 18.8594V9.96875C1.125 7.82812 2.03125 6.125 4.92187 6.125L23.1094 6.09375C25.6562 6.09375 26.1562 7.8125 26.1562 9.17188Z" stroke="#464646" stroke-miterlimit="10" stroke-linecap="round" stroke-linejoin="round"/>
<path d="M12.6563 33.8906L1.15625 33.9062C1.15625 33.9062 1.14062 26.5625 1.14062 18.875C1.14062 18.875 5.125 18.9062 9.6875 18.9531L9.64063 24.6875V24.7031L9.60938 28.75H12.6563C14.6875 28.7344 14.7031 33.8906 12.6563 33.8906Z" stroke="#464646" stroke-miterlimit="10" stroke-linecap="round" stroke-linejoin="round"/>
<circle cx="9.6875" cy="18.9375" r="0.625" fill="#464646"/>
<path d="M13.6562 23.9531C12.8281 24.75 10.125 24.7031 9.625 24.6875V24.6719L9.67187 18.9375C11.125 18.9531 12.6406 18.9531 14.1094 18.9688H14.3125C14.3594 20.4063 14.3437 23.2969 13.6562 23.9531Z" stroke="#464646" stroke-miterlimit="10" stroke-linecap="round" stroke-linejoin="round"/>
<path d="M3.70312 27.875H7.15625" stroke="#386DF3" stroke-miterlimit="10" stroke-linecap="round" stroke-linejoin="round"/>
<path d="M3.6875 23.7031H7.15625" stroke="#386DF3" stroke-miterlimit="10" stroke-linecap="round" stroke-linejoin="round"/>
<path d="M5.40625 10.8281L20.2656 10.8125" stroke="#FFB431" stroke-miterlimit="10" stroke-linecap="round" stroke-linejoin="round"/>
<path d="M5.40625 14.3281L12.8437 14.3125" stroke="#FFB431" stroke-miterlimit="10" stroke-linecap="round" stroke-linejoin="round"/>
<path d="M30.4219 13.9062C30.25 14.9375 29.8594 15.7344 29.2656 15.7344H26.1562L26.1406 9.17188H29.25C29.7969 9.17188 30.1719 9.85937 30.3594 10.7969C30.5781 11.7344 30.5937 12.9219 30.4219 13.9062Z" stroke="#464646" stroke-miterlimit="10" stroke-linecap="round" stroke-linejoin="round"/>
<path d="M37.2812 13.8906L30.4219 13.9062C30.5938 12.9219 30.5781 11.7344 30.375 10.7812L37.2656 10.7656C40.7344 10.7813 40.75 13.8906 37.2812 13.8906Z" stroke="#464646" stroke-miterlimit="10" stroke-linecap="round" stroke-linejoin="round"/>
</g>
<defs>
<clipPath id="clip0_2100_1496">
<rect width="40" height="40" fill="white" transform="translate(0.5)"/>
</clipPath>
</defs>
</svg>
