<svg width="25" height="24" viewBox="0 0 25 24" fill="none" xmlns="http://www.w3.org/2000/svg">
<circle cx="12.4792" cy="7.27803" r="4.77803" fill="#0C1B54" stroke="#0C1B54" stroke-width="1.5" stroke-linecap="round" stroke-linejoin="round"/>
<path fill-rule="evenodd" clip-rule="evenodd" d="M4.90041 18.7013C4.89912 18.3654 4.97424 18.0336 5.12009 17.7311C5.57775 16.8157 6.86837 16.3306 7.93931 16.1109C8.71167 15.9461 9.4947 15.836 10.2826 15.7814C11.7412 15.6533 13.2083 15.6533 14.667 15.7814C15.4548 15.8366 16.2378 15.9467 17.0102 16.1109C18.0812 16.3306 19.3718 16.77 19.8295 17.7311C20.1228 18.3479 20.1228 19.0639 19.8295 19.6807C19.3718 20.6418 18.0812 21.0812 17.0102 21.2917C16.2388 21.4633 15.4555 21.5766 14.667 21.6304C13.4798 21.731 12.287 21.7494 11.0972 21.6853C10.8226 21.6853 10.5572 21.6853 10.2826 21.6304C9.49702 21.5772 8.71671 21.464 7.94846 21.2917C6.86837 21.0812 5.58691 20.6418 5.12009 19.6807C4.97499 19.3746 4.89994 19.04 4.90041 18.7013Z" fill="#0C1B54" stroke="#0C1B54" stroke-width="1.5" stroke-linecap="round" stroke-linejoin="round"/>
</svg>
