<svg width="49" height="49" viewBox="0 0 49 49" fill="none" xmlns="http://www.w3.org/2000/svg">
<rect x="1" y="1" width="47" height="47" rx="23.5" fill="white"/>
<rect x="1" y="1" width="47" height="47" rx="23.5" stroke="#ECEFF3"/>
<path d="M24.4702 34.5C29.9931 34.5 34.4702 30.0228 34.4702 24.5C34.4702 18.9772 29.9931 14.5 24.4702 14.5C18.9474 14.5 14.4702 18.9772 14.4702 24.5C14.4702 30.0228 18.9474 34.5 24.4702 34.5Z" fill="#0C1B54" stroke="#0C1B54" stroke-width="1.5" stroke-linecap="round" stroke-linejoin="round"/>
<path d="M24.5 28.7295C26.8362 28.7295 28.73 26.8357 28.73 24.4995C28.73 22.1634 26.8362 20.2695 24.5 20.2695C22.1639 20.2695 20.27 22.1634 20.27 24.4995C20.27 26.8357 22.1639 28.7295 24.5 28.7295Z" stroke="white" stroke-width="1.5" stroke-miterlimit="10" stroke-linecap="round" stroke-linejoin="round"/>
</svg>
