<svg width="25" height="24" viewBox="0 0 25 24" fill="none" xmlns="http://www.w3.org/2000/svg">
<g id="vuesax/bold/routing">
<path id="Vector" d="M9.38003 4.59997C8.58003 1.13997 3.37002 1.12997 2.57002 4.59997C2.10002 6.62997 3.39003 8.34997 4.51003 9.41997C5.33003 10.19 6.62003 10.19 7.44003 9.41997C8.56003 8.34997 9.84003 6.62997 9.38003 4.59997ZM6.01003 6.19997C5.46003 6.19997 5.01003 5.74997 5.01003 5.19997C5.01003 4.64997 5.45003 4.19997 6.00003 4.19997H6.01003C6.57003 4.19997 7.01003 4.64997 7.01003 5.19997C7.01003 5.74997 6.57003 6.19997 6.01003 6.19997Z" fill="#292D32"/>
<path id="Vector_2" d="M22.41 16.6C21.61 13.14 16.38 13.13 15.57 16.6C15.1 18.63 16.39 20.35 17.52 21.42C18.34 22.19 19.64 22.19 20.46 21.42C21.59 20.35 22.88 18.63 22.41 16.6ZM19.03 18.2C18.48 18.2 18.03 17.75 18.03 17.2C18.03 16.65 18.47 16.2 19.02 16.2H19.03C19.58 16.2 20.03 16.65 20.03 17.2C20.03 17.75 19.58 18.2 19.03 18.2Z" fill="#292D32"/>
<path id="Vector_3" d="M12.4999 19.75H9.81994C8.65994 19.75 7.64994 19.05 7.24994 17.97C6.83994 16.89 7.13994 15.7 8.00994 14.93L15.9999 7.94C16.4799 7.52 16.4899 6.95 16.3499 6.56C16.1999 6.17 15.8199 5.75 15.1799 5.75H12.4999C12.0899 5.75 11.7499 5.41 11.7499 5C11.7499 4.59 12.0899 4.25 12.4999 4.25H15.1799C16.3399 4.25 17.3499 4.95 17.7499 6.03C18.1599 7.11 17.8599 8.3 16.9899 9.07L8.99994 16.06C8.51994 16.48 8.50994 17.05 8.64994 17.44C8.79994 17.83 9.17994 18.25 9.81994 18.25H12.4999C12.9099 18.25 13.2499 18.59 13.2499 19C13.2499 19.41 12.9099 19.75 12.4999 19.75Z" fill="#292D32"/>
</g>
</svg>
