<svg width="24" height="24" viewBox="0 0 24 24" fill="none" xmlns="http://www.w3.org/2000/svg">
<g id="smile">
<g id="Vector">
<path d="M8.79738 5.18137C10.7801 4.18206 13.0897 4.18206 15.0724 5.18137C17.0551 6.18067 18.4951 8.07053 18.9848 10.316C19.4745 12.5614 18.9605 14.918 17.5885 16.7187C16.2164 18.5194 14.1355 19.5682 11.9349 19.5682C9.73425 19.5682 7.65337 18.5194 6.2813 16.7187C4.90923 14.918 4.39529 12.5614 4.88498 10.316C5.37467 8.07053 6.81468 6.18067 8.79738 5.18137Z" fill="#EBF0FE"/>
<path d="M9.92837 10.2C9.92837 10.5314 9.6717 10.8 9.35508 10.8C9.03847 10.8 8.7818 10.5314 8.7818 10.2C8.7818 9.86865 9.03847 9.60002 9.35508 9.60002C9.6717 9.60002 9.92837 9.86865 9.92837 10.2Z" fill="#EBF0FE"/>
<path d="M15.088 10.2C15.088 10.5314 14.8313 10.8 14.5147 10.8C14.1981 10.8 13.9414 10.5314 13.9414 10.2C13.9414 9.86865 14.1981 9.60002 14.5147 9.60002C14.8313 9.60002 15.088 9.86865 15.088 10.2Z" fill="#EBF0FE"/>
<path d="M14.9752 15.182C14.1689 16.0259 13.0752 16.5 11.9349 16.5C10.7945 16.5 9.7009 16.0259 8.89456 15.182M4.88498 10.316C5.37467 8.07053 6.81468 6.18067 8.79738 5.18137C10.7801 4.18206 13.0897 4.18206 15.0724 5.18137C17.0551 6.18067 18.4951 8.07053 18.9848 10.316C19.4745 12.5614 18.9605 14.918 17.5885 16.7187C16.2164 18.5194 14.1355 19.5682 11.9349 19.5682C9.73425 19.5682 7.65337 18.5194 6.2813 16.7187C4.90923 14.918 4.39529 12.5614 4.88498 10.316ZM9.92837 10.2C9.92837 10.5314 9.6717 10.8 9.35508 10.8C9.03847 10.8 8.7818 10.5314 8.7818 10.2C8.7818 9.86865 9.03847 9.60002 9.35508 9.60002C9.6717 9.60002 9.92837 9.86865 9.92837 10.2ZM15.088 10.2C15.088 10.5314 14.8313 10.8 14.5147 10.8C14.1981 10.8 13.9414 10.5314 13.9414 10.2C13.9414 9.86865 14.1981 9.60002 14.5147 9.60002C14.8313 9.60002 15.088 9.86865 15.088 10.2Z" stroke="#0C1B54" stroke-linecap="round" stroke-linejoin="round"/>
</g>
</g>
</svg>
