<svg width="41" height="40" viewBox="0 0 41 40" fill="none" xmlns="http://www.w3.org/2000/svg">
<g clip-path="url(#clip0_2100_1847)">
<path d="M7.35936 19.0468L6.28123 19.4218C5.76561 19.5937 5.49998 20.1718 5.67186 20.6875L6.37498 22.75C4.42186 22.3906 1.73436 21.3281 1.24998 19.9062C0.984356 19.125 1.09373 18.5 1.87498 18.1093C3.10936 17.7812 6.31248 17.125 7.35936 19.0468Z" fill="#FFB431"/>
<path opacity="0.15" d="M7.35936 19.0468L6.28123 19.4218C5.76561 19.5937 5.49998 20.1718 5.67186 20.6875L6.37498 22.75C4.42186 22.3906 1.73436 21.3281 1.24998 19.9062C0.984356 19.125 1.09373 18.5 1.87498 18.1093C3.10936 17.7812 6.31248 17.125 7.35936 19.0468Z" fill="black"/>
<path d="M34.8906 8.28119L36.6406 13.4374C36.9375 14.3124 36.7812 14.5624 35.9531 14.8437C35.9531 14.8437 35.7812 14.9062 35.4531 15.0156L13.8281 22.5468C13.7344 22.5781 13.6562 22.6093 13.5625 22.6249C12.7656 22.8593 11.9219 22.8906 11.125 22.7187C10.4531 22.5781 9.79687 22.2968 9.21875 21.8437C8.48437 21.2812 7.89062 20.4843 7.53125 19.4374C7.48437 19.2968 7.42188 19.1562 7.35938 19.0468C6.29688 17.1249 3.10937 17.7812 1.875 18.1093C1.96875 18.0624 2.07812 18.0156 2.1875 17.9843C3.25 17.6093 32.9062 7.29682 32.9062 7.29682C34 6.92182 34.5937 7.42182 34.8906 8.28119Z" fill="#FFB431"/>
<path opacity="0.1" d="M35.9531 14.8437C35.9531 14.8437 35.7812 14.9062 35.4531 15.0156L13.8281 22.5468C13.7344 22.5781 13.6562 22.6093 13.5625 22.6249C12.7656 22.8593 11.9219 22.8906 11.125 22.7187C10.4531 22.5781 9.79687 22.2812 9.21875 21.8437C9.17187 21.8124 9.14062 21.7812 9.09375 21.7499C9.89062 21.9218 10.7188 21.8749 11.5 21.6562C11.5938 21.6406 11.6719 21.6093 11.7656 21.5781L33.3906 14.0624C33.7031 13.9531 33.8906 13.8906 33.8906 13.8906C34.7031 13.6093 34.875 13.3593 34.5781 12.4843L32.8438 7.32807C32.8906 7.31244 32.9219 7.29682 32.9219 7.29682C34.0156 6.92182 34.6094 7.42182 34.9062 8.28119L36.6562 13.4374C36.9375 14.3124 36.7812 14.5624 35.9531 14.8437Z" fill="black"/>
<path d="M13.5625 22.625L14.5937 25.6719C14.7656 26.1875 14.5 26.7656 13.9844 26.9375L9.37498 28.5469C8.85935 28.7187 8.29685 28.4531 8.12498 27.9219L5.67185 20.6719C5.49998 20.1562 5.7656 19.5781 6.28123 19.4062L7.35935 19.0312C7.42185 19.1562 7.48435 19.2812 7.53123 19.4219C7.8906 20.4688 8.48435 21.2812 9.21873 21.8281C8.9531 22.2031 8.8906 22.8594 9.10935 23.5156C9.40623 24.4062 10.1094 24.9687 10.6875 24.7656C11.25 24.5625 11.4687 23.6875 11.1562 22.7969C11.1406 22.7656 11.125 22.7187 11.1094 22.6875C11.9219 22.8906 12.7656 22.8594 13.5625 22.625Z" fill="#386DF3"/>
<path opacity="0.1" d="M9.10937 23.5313C7.75 22.6094 6.59375 21.4688 5.65625 20.0781C5.75 19.7812 5.96875 19.5313 6.28125 19.4219L7.35938 19.0469C7.42188 19.1719 7.48438 19.2969 7.53125 19.4375C7.89062 20.4844 8.48438 21.2969 9.21875 21.8438C8.95312 22.2344 8.89062 22.875 9.10937 23.5313Z" fill="black"/>
<path opacity="0.1" d="M10.9688 24.6094C11.3125 24.2656 11.4062 23.5469 11.1562 22.8281C11.1406 22.7969 11.125 22.75 11.1094 22.7187C11.9219 22.8906 12.7656 22.8594 13.5469 22.625L14.5781 25.6719C14.6094 25.7656 14.625 25.8437 14.625 25.9375C13.3281 25.6094 12.0938 25.1719 10.9688 24.6094Z" fill="black"/>
<path d="M35.8906 19.3281L28.3906 21.9375L22.4844 23.9844L14 26.9375C14.5156 26.7656 14.7813 26.1875 14.6094 25.6719L13.5781 22.625C13.6719 22.5938 13.75 22.5781 13.8438 22.5469L35.4688 15.0312L36.5 18.0781C36.6719 18.5781 36.3906 19.1562 35.8906 19.3281Z" fill="#386DF3"/>
<path opacity="0.1" d="M35.9688 16.5312L14.3594 24.2031C14.2812 24.2344 14.2031 24.25 14.1406 24.2812L13.5781 22.6406C13.6719 22.6094 13.75 22.5937 13.8438 22.5625L35.4688 15.0469L35.9688 16.5312Z" fill="black"/>
<path d="M11.1562 22.8281C11.4531 23.7188 11.25 24.6094 10.6875 24.7969C10.125 25 9.42186 24.4375 9.10936 23.5469C8.89061 22.8906 8.93749 22.2344 9.21874 21.8594C9.79686 22.2969 10.4375 22.5781 11.125 22.7344C11.1406 22.75 11.1562 22.7969 11.1562 22.8281Z" fill="#386DF3"/>
<path d="M11.1562 22.8281C11.4531 23.7188 11.25 24.6094 10.6875 24.7969C10.125 25 9.42186 24.4375 9.10936 23.5469C8.89061 22.8906 8.93749 22.2344 9.21874 21.8594C9.79686 22.2969 10.4375 22.5781 11.125 22.7344C11.1406 22.75 11.1562 22.7969 11.1562 22.8281Z" fill="#FFB431"/>
<path d="M39.875 25.625H34.7188V32.8437H39.875V25.625Z" fill="#FFB431"/>
<path opacity="0.1" d="M39.875 25.625H37.8125V32.8437H39.875V25.625Z" fill="black"/>
<path d="M34.7188 25.625H31.2812V28.8125H34.7188V25.625Z" fill="#FFB431"/>
<path opacity="0.1" d="M34.7188 25.625H33V28.8125H34.7188V25.625Z" fill="black"/>
<path d="M28.0781 25.625C26.7656 27.5 23.625 27.3906 22.4688 24L28.375 21.9531C28.9062 23.5 28.6875 24.7656 28.0781 25.625Z" fill="#FFB431"/>
<path opacity="0.1" d="M28.6719 23.625L23.2656 25.5C22.9531 25.0938 22.6719 24.5938 22.4688 23.9844L28.375 21.9375C28.5781 22.5469 28.6719 23.1094 28.6719 23.625Z" fill="black"/>
<path d="M7.35936 19.0468L6.28123 19.4218C5.76561 19.5937 5.49998 20.1718 5.67186 20.6875L6.37498 22.75C4.42186 22.3906 1.73436 21.3281 1.24998 19.9062C0.984356 19.125 1.09373 18.5 1.87498 18.1093C3.10936 17.7812 6.31248 17.125 7.35936 19.0468Z" stroke="#464646" stroke-miterlimit="10" stroke-linecap="round" stroke-linejoin="round"/>
<path d="M34.8906 8.28119L36.6406 13.4374C36.9375 14.3124 36.7812 14.5624 35.9531 14.8437C35.9531 14.8437 35.7812 14.9062 35.4531 15.0156L13.8281 22.5468C13.7344 22.5781 13.6562 22.6093 13.5625 22.6249C12.7656 22.8593 11.9219 22.8906 11.125 22.7187C10.4531 22.5781 9.79687 22.2968 9.21875 21.8437C8.48437 21.2812 7.89062 20.4843 7.53125 19.4374C7.48437 19.2968 7.42187 19.1562 7.35937 19.0468C6.29687 17.1249 3.10937 17.7812 1.875 18.1093C1.96875 18.0624 2.07812 18.0156 2.1875 17.9843C3.25 17.6093 32.9062 7.29682 32.9062 7.29682C34 6.92182 34.5937 7.42182 34.8906 8.28119Z" stroke="#464646" stroke-miterlimit="10" stroke-linecap="round" stroke-linejoin="round"/>
<path d="M13.5625 22.625L14.5937 25.6719C14.7656 26.1875 14.5 26.7656 13.9844 26.9375L9.37498 28.5469C8.85935 28.7187 8.29685 28.4531 8.12498 27.9219L5.67185 20.6719C5.49998 20.1563 5.7656 19.5781 6.28123 19.4062L7.35935 19.0312C7.42185 19.1563 7.48435 19.2813 7.53123 19.4219C7.8906 20.4687 8.48435 21.2812 9.21873 21.8281C8.9531 22.2031 8.8906 22.8594 9.10935 23.5156C9.40623 24.4062 10.1094 24.9687 10.6875 24.7656C11.25 24.5625 11.4687 23.6875 11.1562 22.7969C11.1406 22.7656 11.125 22.7187 11.1094 22.6875C11.9219 22.8906 12.7656 22.8594 13.5625 22.625Z" stroke="#464646" stroke-miterlimit="10" stroke-linecap="round" stroke-linejoin="round"/>
<path d="M35.8906 19.3281L28.3906 21.9375L22.4844 23.9844L14 26.9375C14.5156 26.7656 14.7813 26.1875 14.6094 25.6719L13.5781 22.625C13.6719 22.5938 13.75 22.5781 13.8438 22.5469L35.4688 15.0312L36.5 18.0781C36.6719 18.5781 36.3906 19.1562 35.8906 19.3281Z" stroke="#464646" stroke-miterlimit="10" stroke-linecap="round" stroke-linejoin="round"/>
<path d="M11.1562 22.8281C11.4531 23.7188 11.25 24.6094 10.6875 24.7969C10.125 25 9.42186 24.4375 9.10936 23.5469C8.89061 22.8906 8.93749 22.2344 9.21874 21.8594C9.79686 22.2969 10.4375 22.5781 11.125 22.7344C11.1406 22.75 11.1562 22.7969 11.1562 22.8281Z" stroke="#464646" stroke-miterlimit="10" stroke-linecap="round" stroke-linejoin="round"/>
<path d="M39.875 25.625H34.7188V32.8437H39.875V25.625Z" stroke="#464646" stroke-miterlimit="10" stroke-linecap="round" stroke-linejoin="round"/>
<path d="M34.7188 25.625H31.2812V28.8125H34.7188V25.625Z" stroke="#464646" stroke-miterlimit="10" stroke-linecap="round" stroke-linejoin="round"/>
<path d="M28.0781 25.625C26.7656 27.5 23.625 27.3906 22.4688 24L28.375 21.9531C28.9062 23.5 28.6875 24.7656 28.0781 25.625Z" stroke="#464646" stroke-miterlimit="10" stroke-linecap="round" stroke-linejoin="round"/>
<path d="M26 24.6719L26.0625 24.8281" stroke="#464646" stroke-miterlimit="10" stroke-linecap="round" stroke-linejoin="round"/>
<path d="M31.2812 27.4062L28.0781 25.625" stroke="#464646" stroke-miterlimit="10" stroke-linecap="round" stroke-linejoin="round"/>
</g>
<defs>
<clipPath id="clip0_2100_1847">
<rect width="40" height="40" fill="white" transform="translate(0.5)"/>
</clipPath>
</defs>
</svg>
