<svg width="41" height="40" viewBox="0 0 41 40" fill="none" xmlns="http://www.w3.org/2000/svg">
<path d="M28.7812 12.2031C28.7812 14.125 28.7812 24.3594 28.7812 24.3594H21.6562V21.4219C21.6562 19.5625 19.3438 19.5625 19.3438 21.4219V24.3594H12.2188C12.2188 24.3594 12.2188 22.0312 12.2188 19.3906C12.2188 16.4844 12.2188 13.2031 12.2188 12.2031C12.2188 11.5 13.0781 9.76562 14.25 7.84375C16.2969 4.51563 19.3125 0.625 20.5 0.625C22.3594 0.625 28.7812 10.2656 28.7812 12.2031Z" fill="#386DF3"/>
<path opacity="0.07" d="M28.7812 24.3594H26.4844H22.9531H20.6406V21.2656C20.6406 19.4062 22.9531 19.4062 22.9531 21.2656V22.9531H26.4844C26.4844 22.9531 26.4844 15.625 26.4844 12.2031C26.4844 10.5781 21.8906 3.42188 19.3438 1.25C19.6719 0.96875 19.9688 0.78125 20.2031 0.6875C20.2344 0.671875 20.25 0.671875 20.2812 0.65625C20.3125 0.640625 20.3281 0.640625 20.3438 0.640625C20.3594 0.640625 20.375 0.640625 20.375 0.640625C20.3906 0.640625 20.4063 0.640625 20.4219 0.640625C20.4375 0.640625 20.4531 0.640625 20.4844 0.640625C22.3438 0.640625 28.7656 10.2969 28.7656 12.2188C28.7812 14.125 28.7812 24.3594 28.7812 24.3594Z" fill="black"/>
<path d="M21.6562 21.4219V28.5156H19.3438V21.4219C19.3437 19.5625 21.6562 19.5625 21.6562 21.4219Z" fill="#C0C2BF"/>
<path opacity="0.1" d="M20.5 28.5156V21.4218C20.5 20.8124 20.25 20.4062 19.9219 20.1874C20.6094 19.7499 21.6562 20.1562 21.6562 21.4218V28.5156H20.5Z" fill="black"/>
<path d="M22.8125 29.3594V38.5469C22.8125 39.0156 22.4375 39.3906 21.9687 39.3906H19.0469C18.5781 39.3906 18.2031 39.0156 18.2031 38.5469V29.3594C18.2031 28.8906 18.5781 28.5156 19.0469 28.5156H21.9687C22.4219 28.5156 22.8125 28.8906 22.8125 29.3594Z" fill="#FFB431"/>
<path opacity="0.07" d="M22.8125 38.5313C22.8125 39 22.4375 39.375 21.9687 39.375H19.0625C18.5938 39.375 18.2188 39 18.2188 38.5313V38.1719H20.5781C21.0469 38.1719 21.4219 37.7969 21.4219 37.3281V28.5H21.9844C22.4531 28.5 22.8281 28.875 22.8281 29.3438L22.8125 38.5313Z" fill="black"/>
<path d="M28.7812 12.2031C28.7812 14.125 28.7812 24.3594 28.7812 24.3594H21.6562V21.4219C21.6562 19.5625 19.3437 19.5625 19.3437 21.4219V24.3594H12.2188C12.2188 24.3594 12.2188 22.0312 12.2188 19.3906C12.2188 16.4844 12.2188 13.2031 12.2188 12.2031C12.2188 11.5 13.0781 9.76563 14.25 7.84375C16.2969 4.51563 19.3125 0.625 20.5 0.625C22.3594 0.625 28.7812 10.2656 28.7812 12.2031Z" stroke="#464646" stroke-miterlimit="10" stroke-linecap="round" stroke-linejoin="round"/>
<path d="M21.6562 21.4219V28.5156H19.3438V21.4219C19.3437 19.5625 21.6562 19.5625 21.6562 21.4219Z" stroke="#464646" stroke-miterlimit="10" stroke-linecap="round" stroke-linejoin="round"/>
<path d="M22.8125 29.3594V38.5469C22.8125 39.0156 22.4375 39.3906 21.9687 39.3906H19.0469C18.5781 39.3906 18.2031 39.0156 18.2031 38.5469V29.3594C18.2031 28.8906 18.5781 28.5156 19.0469 28.5156H21.9687C22.4219 28.5156 22.8125 28.8906 22.8125 29.3594Z" stroke="#464646" stroke-miterlimit="10" stroke-linecap="round" stroke-linejoin="round"/>
</svg>
