<svg width="159" height="130" viewBox="0 0 159 130" fill="none" xmlns="http://www.w3.org/2000/svg">
<g id="undraw_in-no-time_ax6n 1" clip-path="url(#clip0_298_4060)">
<path id="Vector" d="M118.077 124.713C123.035 128.554 129.263 130.375 135.509 129.808C141.755 129.242 147.555 126.329 151.74 121.658C155.925 116.987 158.185 110.904 158.065 104.634C157.945 98.3632 155.454 92.371 151.093 87.8635L118.077 124.713Z" fill="#F2F2F2"/>
<path id="Vector_2" d="M57.4219 38.645L26.7715 72.4335C28.4441 76.0686 30.9684 79.2469 34.1305 81.6991L67.1464 44.8496C64.4373 42.0462 61.1058 39.9206 57.4219 38.645Z" fill="#F2F2F2"/>
<path id="Vector_3" d="M57.2992 38.6628V18.9053H41.1689V38.6017C46.4036 36.8324 52.078 36.8539 57.2992 38.6628Z" fill="#386DF3"/>
<path id="Vector_4" d="M41.1689 85.2369V105.454H57.2992V85.1758C52.078 86.9847 46.4036 87.0062 41.1689 85.2369Z" fill="#386DF3"/>
<path id="Vector_5" d="M49.3208 86.8084C35.5969 86.8084 24.4316 75.6431 24.4316 61.9192C24.4316 48.1953 35.5969 37.03 49.3208 37.03C63.0446 37.03 74.2099 48.1953 74.2099 61.9192C74.2099 75.6431 63.0446 86.8084 49.3208 86.8084ZM49.3208 37.2035C35.6925 37.2035 24.6051 48.2909 24.6051 61.9192C24.6051 75.5474 35.6925 86.6349 49.3208 86.6349C62.949 86.6349 74.0364 75.5474 74.0364 61.9192C74.0364 48.2909 62.949 37.2035 49.3208 37.2035Z" fill="black"/>
<path id="Vector_6" d="M31.8027 61.9194C31.8027 66.5654 33.6484 71.0211 36.9336 74.3063C40.2188 77.5916 44.6745 79.4372 49.3205 79.4372V44.4016C44.6745 44.4016 40.2188 46.2472 36.9336 49.5325C33.6484 52.8177 31.8027 57.2734 31.8027 61.9194Z" fill="#575A89"/>
<path id="Vector_7" d="M49.3203 44.4016V79.4372C53.9663 79.4372 58.422 77.5916 61.7073 74.3063C64.9925 71.0211 66.8381 66.5654 66.8381 61.9194C66.8381 57.2734 64.9925 52.8177 61.7073 49.5325C58.422 46.2472 53.9663 44.4016 49.3203 44.4016Z" fill="#386DF3"/>
<path id="Vector_8" d="M49.3208 65.2148C50.6618 65.2148 51.749 64.1277 51.749 62.7866C51.749 61.4455 50.6618 60.3584 49.3208 60.3584C47.9797 60.3584 46.8926 61.4455 46.8926 62.7866C46.8926 64.1277 47.9797 65.2148 49.3208 65.2148Z" fill="#2F2E41"/>
<path id="Vector_9" d="M49.3164 53.8816L49.9214 58.6809L50.5263 63.4803H49.3164H48.1064L48.7114 58.6809L49.3164 53.8816Z" fill="#2F2E41"/>
<path id="Vector_10" d="M63.7991 62.9229L55.9053 63.2181L48.0117 63.5131L48.0161 62.8236L48.0204 62.134L55.9096 62.5284L63.7991 62.9229Z" fill="#2F2E41"/>
<path id="Vector_11" d="M75.0764 64.0005C74.6748 64.0005 74.5127 63.7246 74.3074 63.3753C74.2561 63.2881 74.2005 63.1935 74.1362 63.0935L74.2822 62.9997C74.3479 63.1018 74.4046 63.1983 74.457 63.2874C74.6614 63.6354 74.7741 63.8271 75.0764 63.8271C76.0806 63.8271 76.8976 62.1542 76.8976 60.098C76.8976 58.0419 76.0806 56.369 75.0764 56.369C74.4966 56.369 74.0935 56.7267 73.7693 57.5289L73.6084 57.4639C73.9629 56.5867 74.4157 56.1956 75.0764 56.1956C76.1762 56.1956 77.071 57.9462 77.071 60.098C77.071 62.2499 76.1762 64.0005 75.0764 64.0005Z" fill="black"/>
<path id="Vector_12" d="M51.7485 123.839C64.7759 123.839 75.3368 123.45 75.3368 122.971C75.3368 122.493 64.7759 122.104 51.7485 122.104C38.721 122.104 28.1602 122.493 28.1602 122.971C28.1602 123.45 38.721 123.839 51.7485 123.839Z" fill="#F2F2F2"/>
<path id="Vector_13" d="M135.175 31.3933C137.186 31.3933 138.817 29.7625 138.817 27.751C138.817 25.7394 137.186 24.1086 135.175 24.1086C133.163 24.1086 131.532 25.7394 131.532 27.751C131.532 29.7625 133.163 31.3933 135.175 31.3933Z" fill="#F2F2F2"/>
<path id="Vector_14" d="M25.7321 1.03102e-05C21.5753 0.00154893 17.4856 1.0474 13.8384 3.04152C10.1912 5.03564 7.10344 7.91413 4.85868 11.4126C2.61392 14.9112 1.28409 18.9176 0.991314 23.064C0.698538 27.2104 1.4522 31.364 3.18308 35.1432L33.8335 1.35479C31.2273 0.455383 28.4892 -0.00250543 25.7321 1.03102e-05Z" fill="#F2F2F2"/>
<path id="Vector_15" d="M108.142 46.0832C111.134 46.0832 113.56 43.6575 113.56 40.6653C113.56 37.673 111.134 35.2473 108.142 35.2473C105.149 35.2473 102.724 37.673 102.724 40.6653C102.724 43.6575 105.149 46.0832 108.142 46.0832Z" fill="#2F2E41"/>
<path id="Vector_16" d="M99.0264 74.6299C99.0264 74.6299 103.352 85.558 103.807 85.558C104.263 85.558 104.946 81.4599 104.946 81.4599L102.214 73.7192L99.0264 74.6299Z" fill="#FFB9B9"/>
<path id="Vector_17" d="M105.401 44.8053C105.401 44.8053 106.54 49.5863 106.084 50.497C105.629 51.4077 106.995 52.7737 106.995 52.7737H110.182L112.459 49.131L112.914 47.5373C112.914 47.5373 111.548 43.8946 111.776 43.4393C112.004 42.984 105.401 44.8053 105.401 44.8053Z" fill="#FFB9B9"/>
<path id="Vector_18" opacity="0.1" d="M105.401 44.8053C105.401 44.8053 106.54 49.5863 106.084 50.497C105.629 51.4077 106.995 52.7737 106.995 52.7737H110.182L112.459 49.131L112.914 47.5373C112.914 47.5373 111.548 43.8946 111.776 43.4393C112.004 42.984 105.401 44.8053 105.401 44.8053Z" fill="black"/>
<path id="Vector_19" d="M118.15 122.212V124.717L121.11 125.4L121.338 122.212H118.15Z" fill="#575A89"/>
<path id="Vector_20" d="M106.084 77.3617C106.084 77.3617 102.896 83.0534 104.035 86.0131C105.173 88.9728 109.499 103.544 109.499 103.544C109.499 103.544 112.003 111.74 112.003 112.195C112.003 112.65 114.052 122.668 114.735 122.895C115.418 123.123 121.565 123.806 121.793 123.123C122.02 122.44 122.248 118.797 121.565 118.114C120.882 117.431 117.239 96.2581 117.239 96.2581L116.784 89.2004L122.476 106.731C122.476 106.731 124.069 117.204 124.752 117.887C125.435 118.57 123.386 119.253 124.069 119.936C124.752 120.619 127.257 122.44 127.029 123.123C126.801 123.806 132.493 123.806 133.176 123.351C133.859 122.895 133.632 115.838 133.632 115.838L130.444 106.276L126.801 83.0534C126.801 83.0534 125.663 76.2234 124.752 76.2234C123.842 76.2234 106.084 77.3617 106.084 77.3617Z" fill="#2F2E41"/>
<path id="Vector_21" d="M118.833 123.806C118.833 123.806 117.012 122.212 116.101 122.668C115.19 123.123 112.231 127.449 111.32 127.221C110.409 126.993 109.043 129.671 111.32 129.899C113.597 130.127 117.239 129.671 117.239 129.671C117.993 129.796 118.753 129.873 119.516 129.899C120.427 129.899 122.476 130.127 122.476 129.899C122.476 129.671 122.021 124.489 121.793 124.489C121.565 124.489 119.061 124.489 118.833 123.806Z" fill="#2F2E41"/>
<path id="Vector_22" d="M131.356 122.212C131.356 122.212 129.079 121.757 128.851 122.212C128.624 122.668 127.713 124.034 127.713 124.261C127.713 124.489 128.168 127.221 128.168 127.449C128.168 127.676 128.624 128.359 129.079 128.815C129.208 128.923 129.299 129.07 129.34 129.233C129.38 129.397 129.369 129.569 129.307 129.725C129.307 129.725 135.226 130.408 135.226 129.498C135.226 128.587 134.543 126.538 134.088 126.083C133.632 125.627 132.722 122.44 131.356 122.212Z" fill="#2F2E41"/>
<path id="Vector_23" d="M108.134 46.8543C110.774 46.8543 112.915 44.7137 112.915 42.0733C112.915 39.4328 110.774 37.2922 108.134 37.2922C105.493 37.2922 103.353 39.4328 103.353 42.0733C103.353 44.7137 105.493 46.8543 108.134 46.8543Z" fill="#FFB9B9"/>
<path id="Vector_24" d="M106.311 50.7247C106.311 50.7247 109.043 52.3184 110.637 49.8141C112.231 47.3097 117.239 54.8228 117.239 54.8228L118.605 78.0449C118.605 78.0449 116.101 78.2725 111.775 79.4109C107.45 80.5492 105.401 77.8172 105.401 77.8172L105.173 64.6125L105.628 58.4654L104.945 53.4568L105.401 50.4971L106.311 50.7247Z" fill="#386DF3"/>
<path id="Vector_25" d="M101.303 53.6843C101.303 53.6843 99.4815 54.1397 99.0262 57.327C98.5708 60.5144 97.6602 70.0764 97.6602 70.0764L98.7985 75.7681C98.7985 75.7681 101.986 73.2637 103.124 74.4021L102.441 70.9871L103.124 68.9381L101.075 60.059L101.303 53.6843Z" fill="#386DF3"/>
<path id="Vector_26" d="M105.831 46.8542C105.831 46.8542 105.401 46.8542 105.401 48.4479C105.401 50.0416 101.075 52.3183 101.075 52.3183C101.075 52.3183 100.62 53.0013 100.62 54.8226C100.62 56.644 100.62 60.9696 101.075 62.3357C101.531 63.7017 102.214 68.255 102.441 68.7103C102.669 69.1657 102.669 71.2147 102.214 71.67C101.758 72.1254 103.352 74.8574 103.807 75.085C104.263 75.3127 102.214 81.2321 103.352 81.4597C104.49 81.6874 106.539 78.7277 107.222 77.1341C107.905 75.5404 107.45 53.4566 107.222 51.8629C106.995 50.2693 105.831 46.8542 105.831 46.8542Z" fill="#575A89"/>
<path id="Vector_27" d="M112.174 45.3892C112.174 45.3892 112.003 44.35 113.141 45.2606C114.28 46.1713 114.507 46.8543 114.507 46.8543C114.507 46.8543 120.427 46.8543 120.654 47.5373C120.882 48.2203 120.519 54.0327 120.519 54.0327L123.511 65.1565C123.511 65.1565 127.712 78.0448 128.167 78.5001C128.623 78.9554 124.525 76.4511 122.248 78.2724C119.971 80.0938 115.873 81.0044 115.418 79.8661C114.963 78.7278 109.954 52.3183 109.954 52.3183C109.954 52.3183 109.954 47.9926 110.637 47.5373C111.32 47.082 112.174 45.3892 112.174 45.3892Z" fill="#575A89"/>
<path id="Vector_28" d="M124.298 66.8892L123.387 77.3619L123.159 78.2726L126.574 82.8259C126.574 82.8259 127.257 80.3215 127.03 79.4109C126.802 78.5002 128.168 68.2552 128.168 68.2552L124.298 66.8892Z" fill="#FFB9B9"/>
<path id="Vector_29" d="M104.389 38.6748C104.389 38.6748 103.283 35.7988 104.887 34.8586L105.33 36.1307C105.33 36.1307 109.367 33.6972 110.418 34.2502L109.422 35.5776C109.422 35.5776 114.123 35.5776 114.455 37.4028L112.796 37.4581C112.796 37.4581 114.566 38.6195 114.621 40.5L111.082 40.7212L112.796 41.7168C112.796 41.7168 106.38 42.6017 104.832 40.0575L104.389 38.6748Z" fill="#2F2E41"/>
<path id="Vector_30" d="M103.432 38.7883C103.432 38.7883 104.706 41.338 106.406 40.7006C108.106 40.0632 106.406 37.726 106.406 37.726L105.273 37.1594L103.432 38.7883Z" fill="#2F2E41"/>
<path id="Vector_31" d="M144.368 129.823H94.7627V129.996H144.368V129.823Z" fill="black"/>
<path id="Vector_32" d="M120.199 47.9927C120.199 47.9927 121.565 48.2203 122.476 49.814C123.387 51.4077 127.94 61.8804 128.168 62.3357C128.395 62.7911 128.395 68.9381 128.395 68.9381C128.395 68.9381 125.208 67.1168 123.842 68.2551L123.614 65.5231L120.655 55.0504L120.199 51.6354L120.199 47.9927Z" fill="#386DF3"/>
</g>
<defs>
<clipPath id="clip0_298_4060">
<rect width="157.14" height="130" fill="white" transform="translate(0.929688)"/>
</clipPath>
</defs>
</svg>
