<svg width="41" height="40" viewBox="0 0 41 40" fill="none" xmlns="http://www.w3.org/2000/svg">
<g clip-path="url(#clip0_2100_2222)">
<path d="M28.1204 20.7541C29.0684 20.7541 29.8368 19.9856 29.8368 19.0377C29.8368 18.0897 29.0684 17.3213 28.1204 17.3213C27.1724 17.3213 26.4039 18.0897 26.4039 19.0377C26.4039 19.9856 27.1724 20.7541 28.1204 20.7541Z" stroke="#386DF3" stroke-width="1.5" stroke-linecap="round" stroke-linejoin="round"/>
<path d="M32.9169 9.95793V12.8293C32.5158 12.7812 32.0506 12.7492 31.5533 12.7492H24.6875C21.2546 12.7492 20.1156 13.8882 20.1156 17.3211V25.5184H10.4585C5.3252 25.5184 4.04187 24.235 4.04187 19.1017V9.95793C4.04187 4.82459 5.3252 3.54126 10.4585 3.54126H26.5002C31.6335 3.54126 32.9169 4.82459 32.9169 9.95793Z" fill="#386DF3" stroke="#386DF3" stroke-width="1.5" stroke-linecap="round" stroke-linejoin="round"/>
<path d="M15.271 25.5186V32.4165" stroke="#386DF3" stroke-width="1.5" stroke-linecap="round" stroke-linejoin="round"/>
<path d="M4.04187 19.4226H20.0835" stroke="white" stroke-width="1.5" stroke-linecap="round" stroke-linejoin="round"/>
<path d="M10.3783 32.4163H20.0835" stroke="#386DF3" stroke-width="1.5" stroke-linecap="round" stroke-linejoin="round"/>
<path d="M28.1204 20.7541C29.0684 20.7541 29.8368 19.9856 29.8368 19.0377C29.8368 18.0897 29.0684 17.3213 28.1204 17.3213C27.1724 17.3213 26.4039 18.0897 26.4039 19.0377C26.4039 19.9856 27.1724 20.7541 28.1204 20.7541Z" fill="#FFB431" stroke="white" stroke-miterlimit="10" stroke-linecap="round" stroke-linejoin="round"/>
<path d="M32.9169 12.8295C32.5158 12.7813 32.0506 12.7493 31.5533 12.7493H24.6875C21.2546 12.7493 20.1156 13.8883 20.1156 17.3212V31.0529C20.1156 34.4858 21.2546 35.6247 24.6875 35.6247H31.5533C34.9862 35.6247 36.1252 34.4858 36.1252 31.0529V17.3212C36.1252 14.3856 35.291 13.1342 32.9169 12.8295ZM28.1204 17.3212C29.0669 17.3212 29.8368 18.0911 29.8368 19.0376C29.8368 19.984 29.0669 20.754 28.1204 20.754C27.174 20.754 26.404 19.984 26.404 19.0376C26.404 18.0911 27.174 17.3212 28.1204 17.3212ZM28.1204 31.0529C26.2275 31.0529 24.6875 29.5128 24.6875 27.6199C24.6875 26.8339 24.9602 26.096 25.4094 25.5185C26.035 24.7164 27.0136 24.187 28.1204 24.187C28.9867 24.187 29.7727 24.5078 30.3663 25.0212C31.0881 25.6628 31.5533 26.5933 31.5533 27.6199C31.5533 29.5128 30.0133 31.0529 28.1204 31.0529Z" fill="#FFB431" stroke="white" stroke-miterlimit="10" stroke-linecap="round" stroke-linejoin="round"/>
<path d="M31.5533 27.62C31.5533 29.5129 30.0134 31.0529 28.1204 31.0529C26.2275 31.0529 24.6875 29.5129 24.6875 27.62C24.6875 26.8339 24.9602 26.096 25.4094 25.5185C26.035 24.7164 27.0136 24.187 28.1204 24.187C28.9867 24.187 29.7727 24.5079 30.3663 25.0212C31.0881 25.6629 31.5533 26.5933 31.5533 27.62Z" fill="#386DF3" stroke="white" stroke-miterlimit="10" stroke-linecap="round" stroke-linejoin="round"/>
<path d="M28.1204 20.7541C29.0684 20.7541 29.8368 19.9856 29.8368 19.0377C29.8368 18.0897 29.0684 17.3213 28.1204 17.3213C27.1724 17.3213 26.4039 18.0897 26.4039 19.0377C26.4039 19.9856 27.1724 20.7541 28.1204 20.7541Z" fill="#386DF3" stroke="white" stroke-miterlimit="10" stroke-linecap="round" stroke-linejoin="round"/>
</g>
<defs>
<clipPath id="clip0_2100_2222">
<rect width="40" height="40" fill="white" transform="translate(0.5)"/>
</clipPath>
</defs>
</svg>
