<svg width="40" height="40" viewBox="0 0 40 40" fill="none" xmlns="http://www.w3.org/2000/svg">
<rect width="40" height="40" rx="8" fill="white"/>
<mask id="mask0_4043_2072" style="mask-type:luminance" maskUnits="userSpaceOnUse" x="9" y="16" width="22" height="8">
<path d="M20.3779 18.5576C20.3653 19.6719 21.2598 20.2938 21.9336 20.6636C22.626 21.043 22.8585 21.2862 22.8559 21.6254C22.8506 22.1447 22.3036 22.3738 21.7916 22.3827C20.8984 22.3984 20.3792 22.1112 19.9663 21.894L19.6446 23.5894C20.0588 23.8044 20.8258 23.9918 21.6212 24C23.4881 24 24.7096 22.9622 24.7162 21.3532C24.7234 19.3111 22.2078 19.1981 22.225 18.2853C22.2309 18.0086 22.4654 17.7132 22.9794 17.6381C23.2337 17.6001 23.936 17.5711 24.732 17.984L25.0445 16.3437C24.6164 16.1681 24.0661 16 23.3811 16C21.6238 16 20.3878 17.0519 20.3779 18.5576ZM28.047 16.1413C27.7061 16.1413 27.4188 16.3653 27.2906 16.7089L24.6237 23.8795H26.4893L26.8605 22.7242H29.1404L29.3557 23.8795H31L29.5651 16.1413H28.047ZM28.308 18.2317L28.8464 21.1374H27.3719L28.308 18.2317ZM18.1159 16.1413L16.6454 23.8795H18.4231L19.893 16.1413H18.1159ZM15.486 16.1413L13.6356 21.4082L12.8871 16.9299C12.7992 16.43 12.4524 16.1413 12.0673 16.1413H9.04228L9 16.366C9.62098 16.5178 10.3265 16.7625 10.7539 17.0244C11.0156 17.1843 11.0902 17.3242 11.1761 17.7043L12.5938 23.8795H14.4726L17.3529 16.1413H15.486Z" fill="white"/>
</mask>
<g mask="url(#mask0_4043_2072)">
<path d="M6.69629 16.9573L28.3728 7.96794L33.3041 23.0467L11.6278 32.0361" fill="#386DF3"/>
</g>
</svg>
